%TF.GenerationSoftware,KiCad,Pcbnew,7.0.7*%
%TF.CreationDate,2024-02-09T14:01:23-05:00*%
%TF.ProjectId,DRV8873H_single_breakout,44525638-3837-4334-985f-73696e676c65,rev?*%
%TF.SameCoordinates,Original*%
%TF.FileFunction,Copper,L1,Top*%
%TF.FilePolarity,Positive*%
%FSLAX46Y46*%
G04 Gerber Fmt 4.6, Leading zero omitted, Abs format (unit mm)*
G04 Created by KiCad (PCBNEW 7.0.7) date 2024-02-09 14:01:23*
%MOMM*%
%LPD*%
G01*
G04 APERTURE LIST*
G04 Aperture macros list*
%AMRoundRect*
0 Rectangle with rounded corners*
0 $1 Rounding radius*
0 $2 $3 $4 $5 $6 $7 $8 $9 X,Y pos of 4 corners*
0 Add a 4 corners polygon primitive as box body*
4,1,4,$2,$3,$4,$5,$6,$7,$8,$9,$2,$3,0*
0 Add four circle primitives for the rounded corners*
1,1,$1+$1,$2,$3*
1,1,$1+$1,$4,$5*
1,1,$1+$1,$6,$7*
1,1,$1+$1,$8,$9*
0 Add four rect primitives between the rounded corners*
20,1,$1+$1,$2,$3,$4,$5,0*
20,1,$1+$1,$4,$5,$6,$7,0*
20,1,$1+$1,$6,$7,$8,$9,0*
20,1,$1+$1,$8,$9,$2,$3,0*%
G04 Aperture macros list end*
%TA.AperFunction,ComponentPad*%
%ADD10C,1.440000*%
%TD*%
%TA.AperFunction,SMDPad,CuDef*%
%ADD11R,1.000000X1.500000*%
%TD*%
%TA.AperFunction,SMDPad,CuDef*%
%ADD12RoundRect,0.237500X0.237500X-0.250000X0.237500X0.250000X-0.237500X0.250000X-0.237500X-0.250000X0*%
%TD*%
%TA.AperFunction,ComponentPad*%
%ADD13R,1.700000X1.700000*%
%TD*%
%TA.AperFunction,SMDPad,CuDef*%
%ADD14RoundRect,0.237500X0.300000X0.237500X-0.300000X0.237500X-0.300000X-0.237500X0.300000X-0.237500X0*%
%TD*%
%TA.AperFunction,ComponentPad*%
%ADD15R,2.400000X2.400000*%
%TD*%
%TA.AperFunction,ComponentPad*%
%ADD16C,2.400000*%
%TD*%
%TA.AperFunction,SMDPad,CuDef*%
%ADD17RoundRect,0.237500X-0.250000X-0.237500X0.250000X-0.237500X0.250000X0.237500X-0.250000X0.237500X0*%
%TD*%
%TA.AperFunction,SMDPad,CuDef*%
%ADD18RoundRect,0.100000X-0.687500X-0.100000X0.687500X-0.100000X0.687500X0.100000X-0.687500X0.100000X0*%
%TD*%
%TA.AperFunction,SMDPad,CuDef*%
%ADD19R,3.400000X7.800000*%
%TD*%
%TA.AperFunction,ComponentPad*%
%ADD20R,3.000000X3.000000*%
%TD*%
%TA.AperFunction,ComponentPad*%
%ADD21C,3.000000*%
%TD*%
%TA.AperFunction,SMDPad,CuDef*%
%ADD22RoundRect,0.237500X-0.300000X-0.237500X0.300000X-0.237500X0.300000X0.237500X-0.300000X0.237500X0*%
%TD*%
%TA.AperFunction,SMDPad,CuDef*%
%ADD23RoundRect,0.237500X-0.237500X0.300000X-0.237500X-0.300000X0.237500X-0.300000X0.237500X0.300000X0*%
%TD*%
%TA.AperFunction,SMDPad,CuDef*%
%ADD24RoundRect,0.250000X0.412500X1.100000X-0.412500X1.100000X-0.412500X-1.100000X0.412500X-1.100000X0*%
%TD*%
%TA.AperFunction,ViaPad*%
%ADD25C,0.800000*%
%TD*%
%TA.AperFunction,Conductor*%
%ADD26C,0.250000*%
%TD*%
%TA.AperFunction,Conductor*%
%ADD27C,0.400000*%
%TD*%
G04 APERTURE END LIST*
%TA.AperFunction,EtchedComponent*%
%TO.C,JP1*%
G36*
X135300000Y-100300000D02*
G01*
X134800000Y-100300000D01*
X134800000Y-99700000D01*
X135300000Y-99700000D01*
X135300000Y-100300000D01*
G37*
%TD.AperFunction*%
%TD*%
D10*
%TO.P,RV2,1,1*%
%TO.N,Net-(U1-IPROP1)*%
X130460000Y-128000000D03*
%TO.P,RV2,2,2*%
X133000000Y-128000000D03*
%TO.P,RV2,3,3*%
%TO.N,Net-(R1-Pad1)*%
X135540000Y-128000000D03*
%TD*%
%TO.P,RV1,1,1*%
%TO.N,Net-(U1-IPROP2)*%
X143460000Y-128000000D03*
%TO.P,RV1,2,2*%
X146000000Y-128000000D03*
%TO.P,RV1,3,3*%
%TO.N,Net-(R2-Pad1)*%
X148540000Y-128000000D03*
%TD*%
D11*
%TO.P,JP1,1,A*%
%TO.N,Net-(J4-Pin_1)*%
X134400000Y-100000000D03*
%TO.P,JP1,2,B*%
%TO.N,Net-(JP1-B)*%
X135700000Y-100000000D03*
%TD*%
D12*
%TO.P,R1,1*%
%TO.N,Net-(R1-Pad1)*%
X139000000Y-129000000D03*
%TO.P,R1,2*%
%TO.N,GND*%
X139000000Y-127175000D03*
%TD*%
D13*
%TO.P,J4,1,Pin_1*%
%TO.N,Net-(J4-Pin_1)*%
X135000000Y-104000000D03*
%TD*%
D14*
%TO.P,C4,1*%
%TO.N,VM*%
X147200000Y-103000000D03*
%TO.P,C4,2*%
%TO.N,GND*%
X145475000Y-103000000D03*
%TD*%
D12*
%TO.P,R2,1*%
%TO.N,Net-(R2-Pad1)*%
X151000000Y-128912500D03*
%TO.P,R2,2*%
%TO.N,GND*%
X151000000Y-127087500D03*
%TD*%
D15*
%TO.P,J6,1,Pin_1*%
%TO.N,VCC*%
X124150000Y-96000000D03*
D16*
%TO.P,J6,2,Pin_2*%
%TO.N,GND*%
X124150000Y-99500000D03*
%TO.P,J6,3,Pin_3*%
%TO.N,MODE*%
X124150000Y-103000000D03*
%TO.P,J6,4,Pin_4*%
%TO.N,EN{slash}IN1*%
X124150000Y-106500000D03*
%TO.P,J6,5,Pin_5*%
%TO.N,PH{slash}IN2*%
X124150000Y-110000000D03*
%TO.P,J6,6,Pin_6*%
%TO.N,DISABLE*%
X124150000Y-113500000D03*
%TO.P,J6,7,Pin_7*%
%TO.N,~{SLEEP}*%
X124150000Y-117000000D03*
%TO.P,J6,8,Pin_8*%
%TO.N,GND*%
X124150000Y-120500000D03*
%TD*%
D13*
%TO.P,J1,1,Pin_1*%
%TO.N,Net-(J1-Pin_1)*%
X135000000Y-112000000D03*
%TD*%
%TO.P,J3,1,Pin_1*%
%TO.N,Net-(J3-Pin_1)*%
X135000000Y-96000000D03*
%TD*%
%TO.P,J2,1,Pin_1*%
%TO.N,Net-(J2-Pin_1)*%
X135000000Y-121000000D03*
%TD*%
D17*
%TO.P,R3,2*%
%TO.N,Net-(J3-Pin_1)*%
X135925000Y-93100000D03*
%TO.P,R3,1*%
%TO.N,VCC*%
X134100000Y-93100000D03*
%TD*%
D18*
%TO.P,U1,1,DVDD*%
%TO.N,Net-(JP1-B)*%
X141275000Y-104850000D03*
%TO.P,U1,2,nFault*%
%TO.N,Net-(J3-Pin_1)*%
X141275000Y-105500000D03*
%TO.P,U1,3,MODE*%
%TO.N,MODE*%
X141275000Y-106150000D03*
%TO.P,U1,4,SR*%
%TO.N,Net-(J4-Pin_1)*%
X141275000Y-106800000D03*
%TO.P,U1,5,nTrip*%
%TO.N,Net-(J1-Pin_1)*%
X141275000Y-107450000D03*
%TO.P,U1,6,nOL*%
%TO.N,Net-(J2-Pin_1)*%
X141275000Y-108100000D03*
%TO.P,U1,7,EN/IN1*%
%TO.N,EN{slash}IN1*%
X141275000Y-108750000D03*
%TO.P,U1,8,PH/IN2*%
%TO.N,PH{slash}IN2*%
X141275000Y-109400000D03*
%TO.P,U1,9,Disable*%
%TO.N,DISABLE*%
X141275000Y-110050000D03*
%TO.P,U1,10,IPROP1*%
%TO.N,Net-(U1-IPROP1)*%
X141275000Y-110700000D03*
%TO.P,U1,11,nSleep*%
%TO.N,~{SLEEP}*%
X141275000Y-111350000D03*
%TO.P,U1,12,IPROP2*%
%TO.N,Net-(U1-IPROP2)*%
X141275000Y-112000000D03*
%TO.P,U1,13,VM*%
%TO.N,VM*%
X147000000Y-112000000D03*
%TO.P,U1,14,OUT2*%
%TO.N,OUT2*%
X147000000Y-111350000D03*
%TO.P,U1,15,OUT2*%
X147000000Y-110700000D03*
%TO.P,U1,16,SRC*%
%TO.N,GND*%
X147000000Y-110050000D03*
%TO.P,U1,17,SRC*%
X147000000Y-109400000D03*
%TO.P,U1,18,OUT1*%
%TO.N,OUT1*%
X147000000Y-108750000D03*
%TO.P,U1,19,OUT1*%
X147000000Y-108100000D03*
%TO.P,U1,20,VM*%
%TO.N,VM*%
X147000000Y-107450000D03*
%TO.P,U1,21,VCP*%
%TO.N,Net-(U1-VCP)*%
X147000000Y-106800000D03*
%TO.P,U1,22,CPH*%
%TO.N,Net-(U1-CPH)*%
X147000000Y-106150000D03*
%TO.P,U1,23,CPL*%
%TO.N,Net-(U1-CPL)*%
X147000000Y-105500000D03*
%TO.P,U1,24,GND*%
%TO.N,GND*%
X147000000Y-104850000D03*
D19*
%TO.P,U1,25,PAD*%
X144137500Y-108425000D03*
%TD*%
D20*
%TO.P,J7,1,Pin_1*%
%TO.N,VM*%
X157200000Y-115020000D03*
D21*
%TO.P,J7,2,Pin_2*%
%TO.N,GND*%
X157200000Y-120100000D03*
%TD*%
D22*
%TO.P,C1,1*%
%TO.N,Net-(JP1-B)*%
X141075000Y-103000000D03*
%TO.P,C1,2*%
%TO.N,GND*%
X142800000Y-103000000D03*
%TD*%
D23*
%TO.P,C2,1*%
%TO.N,Net-(U1-CPL)*%
X150000000Y-103937500D03*
%TO.P,C2,2*%
%TO.N,Net-(U1-CPH)*%
X150000000Y-105662500D03*
%TD*%
D20*
%TO.P,J8,1,Pin_1*%
%TO.N,OUT1*%
X157100000Y-95900000D03*
D21*
%TO.P,J8,2,Pin_2*%
%TO.N,OUT2*%
X157100000Y-100980000D03*
%TD*%
D23*
%TO.P,C3,1*%
%TO.N,Net-(U1-VCP)*%
X152000000Y-103937500D03*
%TO.P,C3,2*%
%TO.N,VM*%
X152000000Y-105662500D03*
%TD*%
D24*
%TO.P,C5,1*%
%TO.N,VM*%
X145662500Y-114600000D03*
%TO.P,C5,2*%
%TO.N,GND*%
X142537500Y-114600000D03*
%TD*%
D23*
%TO.P,C6,1*%
%TO.N,VM*%
X147900000Y-113775000D03*
%TO.P,C6,2*%
%TO.N,GND*%
X147900000Y-115500000D03*
%TD*%
D25*
%TO.N,VM*%
X147200000Y-101600000D03*
%TO.N,Net-(U1-IPROP1)*%
X137837701Y-111637701D03*
%TO.N,Net-(J2-Pin_1)*%
X136900000Y-108200000D03*
%TO.N,Net-(J1-Pin_1)*%
X135100000Y-108025500D03*
%TO.N,Net-(J4-Pin_1)*%
X135000000Y-107000000D03*
%TO.N,Net-(J3-Pin_1)*%
X138900000Y-104700000D03*
%TO.N,GND*%
X149600000Y-109700000D03*
X148600000Y-109700000D03*
%TO.N,VM*%
X150500000Y-112200000D03*
X149200000Y-112200000D03*
%TO.N,OUT1*%
X149600000Y-108400000D03*
%TO.N,VM*%
X151200000Y-107100000D03*
%TO.N,OUT1*%
X148600000Y-108400000D03*
X150600000Y-108400000D03*
%TO.N,VM*%
X152200000Y-107100000D03*
%TD*%
D26*
%TO.N,Net-(J3-Pin_1)*%
X135000000Y-94800000D02*
X135000000Y-96000000D01*
X135925000Y-93875000D02*
X135000000Y-94800000D01*
X135925000Y-93100000D02*
X135925000Y-93875000D01*
%TO.N,VCC*%
X129400000Y-96000000D02*
X132300000Y-93100000D01*
X132300000Y-93100000D02*
X134100000Y-93100000D01*
X124150000Y-96000000D02*
X129400000Y-96000000D01*
%TO.N,EN{slash}IN1*%
X137950000Y-108750000D02*
X141275000Y-108750000D01*
X137300000Y-109400000D02*
X137950000Y-108750000D01*
X134600000Y-109400000D02*
X137300000Y-109400000D01*
X131700000Y-106500000D02*
X134600000Y-109400000D01*
X124150000Y-106500000D02*
X131700000Y-106500000D01*
%TO.N,PH{slash}IN2*%
X137700000Y-110000000D02*
X138300000Y-109400000D01*
X124150000Y-110000000D02*
X137700000Y-110000000D01*
X138300000Y-109400000D02*
X141275000Y-109400000D01*
%TO.N,DISABLE*%
X131340000Y-113500000D02*
X131940000Y-114100000D01*
X124150000Y-113500000D02*
X131340000Y-113500000D01*
%TO.N,~{SLEEP}*%
X139150000Y-111350000D02*
X141275000Y-111350000D01*
X138300000Y-113300000D02*
X138300000Y-112200000D01*
X138300000Y-112200000D02*
X139150000Y-111350000D01*
X136900000Y-114700000D02*
X138300000Y-113300000D01*
X128300000Y-114700000D02*
X136900000Y-114700000D01*
X126000000Y-117000000D02*
X128300000Y-114700000D01*
X124150000Y-117000000D02*
X126000000Y-117000000D01*
D27*
%TO.N,VM*%
X147200000Y-103000000D02*
X147200000Y-101600000D01*
D26*
%TO.N,Net-(U1-IPROP2)*%
X143460000Y-122960000D02*
X143460000Y-128000000D01*
X139700000Y-119200000D02*
X143460000Y-122960000D01*
X139700000Y-112300000D02*
X139700000Y-119200000D01*
X140000000Y-112000000D02*
X139700000Y-112300000D01*
X141275000Y-112000000D02*
X140000000Y-112000000D01*
%TO.N,Net-(R2-Pad1)*%
X151000000Y-128912500D02*
X149452500Y-128912500D01*
X149452500Y-128912500D02*
X148540000Y-128000000D01*
%TO.N,Net-(U1-IPROP2)*%
X146000000Y-128000000D02*
X143460000Y-128000000D01*
%TO.N,Net-(R1-Pad1)*%
X136540000Y-129000000D02*
X139000000Y-129000000D01*
X135540000Y-128000000D02*
X136540000Y-129000000D01*
D27*
%TO.N,VM*%
X147000000Y-112000000D02*
X147000000Y-113775000D01*
X147000000Y-113775000D02*
X146487500Y-113775000D01*
X147900000Y-113775000D02*
X147000000Y-113775000D01*
X146487500Y-113775000D02*
X145662500Y-114600000D01*
D26*
%TO.N,Net-(U1-IPROP1)*%
X130460000Y-128000000D02*
X133000000Y-128000000D01*
X138775402Y-110700000D02*
X137837701Y-111637701D01*
X141275000Y-110700000D02*
X138775402Y-110700000D01*
%TO.N,DISABLE*%
X138350000Y-110050000D02*
X141275000Y-110050000D01*
X136900000Y-111500000D02*
X138350000Y-110050000D01*
X136900000Y-113600000D02*
X136900000Y-111500000D01*
X136400000Y-114100000D02*
X136900000Y-113600000D01*
X131940000Y-114100000D02*
X136400000Y-114100000D01*
%TO.N,Net-(J2-Pin_1)*%
X137000000Y-108100000D02*
X136900000Y-108200000D01*
X141275000Y-108100000D02*
X137000000Y-108100000D01*
%TO.N,Net-(J1-Pin_1)*%
X135675500Y-107450000D02*
X135100000Y-108025500D01*
X141275000Y-107450000D02*
X135675500Y-107450000D01*
%TO.N,Net-(J4-Pin_1)*%
X135200000Y-106800000D02*
X135000000Y-107000000D01*
X141275000Y-106800000D02*
X135200000Y-106800000D01*
%TO.N,MODE*%
X132140000Y-104540000D02*
X130000000Y-104540000D01*
X141275000Y-106150000D02*
X133750000Y-106150000D01*
X133750000Y-106150000D02*
X132140000Y-104540000D01*
%TO.N,Net-(J4-Pin_1)*%
X134400000Y-103400000D02*
X135000000Y-104000000D01*
X134400000Y-100000000D02*
X134400000Y-103400000D01*
%TO.N,Net-(J3-Pin_1)*%
X139700000Y-105500000D02*
X138900000Y-104700000D01*
X141275000Y-105500000D02*
X139700000Y-105500000D01*
%TO.N,MODE*%
X125690000Y-104540000D02*
X130000000Y-104540000D01*
X124150000Y-103000000D02*
X125690000Y-104540000D01*
%TO.N,Net-(U1-VCP)*%
X147000000Y-106800000D02*
X150300000Y-106800000D01*
X151000000Y-106100000D02*
X151000000Y-104400000D01*
X150300000Y-106800000D02*
X151000000Y-106100000D01*
X151000000Y-104400000D02*
X151462500Y-103937500D01*
X151462500Y-103937500D02*
X152000000Y-103937500D01*
%TO.N,Net-(U1-CPH)*%
X148837500Y-105662500D02*
X150000000Y-105662500D01*
X148350000Y-106150000D02*
X148837500Y-105662500D01*
%TO.N,Net-(U1-CPL)*%
X150000000Y-103937500D02*
X149162500Y-103937500D01*
X149162500Y-103937500D02*
X148700000Y-104400000D01*
%TO.N,Net-(U1-CPH)*%
X147000000Y-106150000D02*
X148350000Y-106150000D01*
%TO.N,Net-(U1-CPL)*%
X148700000Y-105000000D02*
X148700000Y-104400000D01*
X148200000Y-105500000D02*
X148700000Y-105000000D01*
X147000000Y-105500000D02*
X148200000Y-105500000D01*
%TO.N,Net-(U1-CPH)*%
X147050000Y-106150000D02*
X147100000Y-106200000D01*
X147000000Y-106150000D02*
X147050000Y-106150000D01*
%TO.N,Net-(JP1-B)*%
X140150000Y-104850000D02*
X139900000Y-104600000D01*
X141275000Y-104850000D02*
X140150000Y-104850000D01*
X139900000Y-103000000D02*
X138800000Y-103000000D01*
X139900000Y-104600000D02*
X139900000Y-103000000D01*
X141075000Y-103000000D02*
X139900000Y-103000000D01*
X137400000Y-100000000D02*
X136000000Y-100000000D01*
X138000000Y-102200000D02*
X138000000Y-100600000D01*
X138800000Y-103000000D02*
X138000000Y-102200000D01*
X138000000Y-100600000D02*
X137400000Y-100000000D01*
%TD*%
%TA.AperFunction,Conductor*%
%TO.N,OUT2*%
G36*
X161143039Y-93019685D02*
G01*
X161188794Y-93072489D01*
X161200000Y-93124000D01*
X161200000Y-107876000D01*
X161180315Y-107943039D01*
X161127511Y-107988794D01*
X161076000Y-108000000D01*
X154999999Y-108000000D01*
X151541819Y-111458181D01*
X151480496Y-111491666D01*
X151454138Y-111494500D01*
X148407738Y-111494500D01*
X148351022Y-111502481D01*
X148306797Y-111515181D01*
X148285225Y-111521377D01*
X148267679Y-111527541D01*
X148262659Y-111529306D01*
X148254873Y-111533352D01*
X148253738Y-111531168D01*
X148200064Y-111549849D01*
X148193950Y-111550000D01*
X146924000Y-111550000D01*
X146856961Y-111530315D01*
X146811206Y-111477511D01*
X146800000Y-111426000D01*
X146800000Y-110900000D01*
X147200000Y-110900000D01*
X147200000Y-111150000D01*
X148279510Y-111150000D01*
X148279511Y-111149998D01*
X148272058Y-111093377D01*
X148272055Y-111093368D01*
X148263392Y-111072453D01*
X148255923Y-111002983D01*
X148263392Y-110977546D01*
X148272056Y-110956629D01*
X148279512Y-110900000D01*
X147200000Y-110900000D01*
X146800000Y-110900000D01*
X146800000Y-110624000D01*
X146819685Y-110556961D01*
X146872489Y-110511206D01*
X146924000Y-110500000D01*
X148332425Y-110500000D01*
X148350066Y-110501261D01*
X148379544Y-110505500D01*
X148379547Y-110505500D01*
X149754138Y-110505500D01*
X149754142Y-110505500D01*
X149765134Y-110504911D01*
X149765142Y-110504910D01*
X149765144Y-110504910D01*
X149765145Y-110504910D01*
X149774637Y-110503889D01*
X149796965Y-110501488D01*
X149873482Y-110477529D01*
X149934805Y-110444044D01*
X149973296Y-110415229D01*
X149999946Y-110400053D01*
X149999999Y-110400000D01*
X150000000Y-110400000D01*
X153000000Y-107400000D01*
X153000000Y-100980001D01*
X155094891Y-100980001D01*
X155115300Y-101265362D01*
X155176109Y-101544895D01*
X155276091Y-101812958D01*
X155413191Y-102064038D01*
X155413196Y-102064046D01*
X155519882Y-102206561D01*
X155519883Y-102206562D01*
X156304520Y-101421924D01*
X156365843Y-101388439D01*
X156435534Y-101393423D01*
X156491468Y-101435294D01*
X156491664Y-101435557D01*
X156543433Y-101505094D01*
X156649125Y-101593781D01*
X156687827Y-101651952D01*
X156688935Y-101721813D01*
X156657100Y-101776451D01*
X155873436Y-102560114D01*
X155873436Y-102560115D01*
X156015960Y-102666807D01*
X156015961Y-102666808D01*
X156267042Y-102803908D01*
X156267041Y-102803908D01*
X156535104Y-102903890D01*
X156814637Y-102964699D01*
X157099999Y-102985109D01*
X157100001Y-102985109D01*
X157385362Y-102964699D01*
X157664895Y-102903890D01*
X157932958Y-102803908D01*
X158184047Y-102666803D01*
X158326561Y-102560116D01*
X158326562Y-102560115D01*
X157543095Y-101776648D01*
X157509610Y-101715325D01*
X157514594Y-101645633D01*
X157556466Y-101589700D01*
X157562638Y-101585366D01*
X157591844Y-101566157D01*
X157713764Y-101436930D01*
X157713764Y-101436929D01*
X157718720Y-101431677D01*
X157720222Y-101433094D01*
X157767836Y-101397243D01*
X157837514Y-101392063D01*
X157898931Y-101425377D01*
X157899176Y-101425622D01*
X158680115Y-102206562D01*
X158680116Y-102206561D01*
X158786803Y-102064047D01*
X158923908Y-101812958D01*
X159023890Y-101544895D01*
X159084699Y-101265362D01*
X159105109Y-100980001D01*
X159105109Y-100979998D01*
X159084699Y-100694637D01*
X159023890Y-100415104D01*
X158923908Y-100147041D01*
X158786808Y-99895961D01*
X158786807Y-99895960D01*
X158680115Y-99753436D01*
X157895478Y-100538074D01*
X157834155Y-100571559D01*
X157764463Y-100566575D01*
X157708530Y-100524703D01*
X157708334Y-100524441D01*
X157656566Y-100454905D01*
X157609133Y-100415104D01*
X157550871Y-100366215D01*
X157512170Y-100308046D01*
X157511062Y-100238185D01*
X157542897Y-100183547D01*
X158326562Y-99399883D01*
X158326561Y-99399882D01*
X158184046Y-99293196D01*
X158184038Y-99293191D01*
X157932957Y-99156091D01*
X157932958Y-99156091D01*
X157664895Y-99056109D01*
X157385362Y-98995300D01*
X157100001Y-98974891D01*
X157099999Y-98974891D01*
X156814637Y-98995300D01*
X156535104Y-99056109D01*
X156267041Y-99156091D01*
X156015961Y-99293191D01*
X156015953Y-99293196D01*
X155873436Y-99399882D01*
X155873436Y-99399883D01*
X156656904Y-100183351D01*
X156690389Y-100244674D01*
X156685405Y-100314366D01*
X156643533Y-100370299D01*
X156637365Y-100374631D01*
X156608155Y-100393843D01*
X156481280Y-100528323D01*
X156479782Y-100526910D01*
X156432125Y-100562770D01*
X156362446Y-100567927D01*
X156301040Y-100534594D01*
X156300823Y-100534377D01*
X155519883Y-99753436D01*
X155519882Y-99753437D01*
X155413196Y-99895953D01*
X155413191Y-99895961D01*
X155276091Y-100147041D01*
X155176109Y-100415104D01*
X155115300Y-100694637D01*
X155094891Y-100979998D01*
X155094891Y-100980001D01*
X153000000Y-100980001D01*
X153000000Y-97419752D01*
X155399500Y-97419752D01*
X155411131Y-97478229D01*
X155411132Y-97478230D01*
X155455447Y-97544552D01*
X155521769Y-97588867D01*
X155521770Y-97588868D01*
X155580247Y-97600499D01*
X155580250Y-97600500D01*
X155580252Y-97600500D01*
X158619750Y-97600500D01*
X158619751Y-97600499D01*
X158634568Y-97597552D01*
X158678229Y-97588868D01*
X158678229Y-97588867D01*
X158678231Y-97588867D01*
X158744552Y-97544552D01*
X158788867Y-97478231D01*
X158788867Y-97478229D01*
X158788868Y-97478229D01*
X158800499Y-97419752D01*
X158800500Y-97419750D01*
X158800500Y-94380249D01*
X158800499Y-94380247D01*
X158788868Y-94321770D01*
X158788867Y-94321769D01*
X158744552Y-94255447D01*
X158678230Y-94211132D01*
X158678229Y-94211131D01*
X158619752Y-94199500D01*
X158619748Y-94199500D01*
X155580252Y-94199500D01*
X155580247Y-94199500D01*
X155521770Y-94211131D01*
X155521769Y-94211132D01*
X155455447Y-94255447D01*
X155411132Y-94321769D01*
X155411131Y-94321770D01*
X155399500Y-94380247D01*
X155399500Y-97419752D01*
X153000000Y-97419752D01*
X153000000Y-93124000D01*
X153019685Y-93056961D01*
X153072489Y-93011206D01*
X153124000Y-93000000D01*
X161076000Y-93000000D01*
X161143039Y-93019685D01*
G37*
%TD.AperFunction*%
%TD*%
%TA.AperFunction,Conductor*%
%TO.N,OUT1*%
G36*
X148350069Y-107901262D02*
G01*
X148353509Y-107901756D01*
X148379544Y-107905500D01*
X148379545Y-107905500D01*
X151695138Y-107905500D01*
X151762177Y-107925185D01*
X151807932Y-107977989D01*
X151817876Y-108047147D01*
X151788851Y-108110703D01*
X151782819Y-108117181D01*
X150936319Y-108963681D01*
X150874996Y-108997166D01*
X150848638Y-109000000D01*
X150647760Y-109000000D01*
X150630113Y-108998738D01*
X150612155Y-108996156D01*
X150600638Y-108994500D01*
X148374721Y-108994500D01*
X148307682Y-108974815D01*
X148281492Y-108952258D01*
X148279512Y-108950000D01*
X146924000Y-108950000D01*
X146856961Y-108930315D01*
X146811206Y-108877511D01*
X146800000Y-108826000D01*
X146800000Y-108300000D01*
X147200000Y-108300000D01*
X147200000Y-108550000D01*
X148279510Y-108550000D01*
X148279511Y-108549998D01*
X148272058Y-108493377D01*
X148272055Y-108493368D01*
X148263392Y-108472453D01*
X148255923Y-108402983D01*
X148263392Y-108377546D01*
X148272056Y-108356629D01*
X148279512Y-108300000D01*
X147200000Y-108300000D01*
X146800000Y-108300000D01*
X146800000Y-108024000D01*
X146819685Y-107956961D01*
X146872489Y-107911206D01*
X146924000Y-107900000D01*
X148332422Y-107900000D01*
X148350069Y-107901262D01*
G37*
%TD.AperFunction*%
%TD*%
%TA.AperFunction,Conductor*%
%TO.N,VM*%
G36*
X152193039Y-105432185D02*
G01*
X152238794Y-105484989D01*
X152250000Y-105536500D01*
X152250000Y-106699999D01*
X152286640Y-106699999D01*
X152286654Y-106699998D01*
X152387652Y-106689680D01*
X152536996Y-106640193D01*
X152606824Y-106637791D01*
X152666866Y-106673523D01*
X152698059Y-106736043D01*
X152700000Y-106757899D01*
X152700000Y-107248637D01*
X152680315Y-107315676D01*
X152663681Y-107336318D01*
X152336319Y-107663681D01*
X152274996Y-107697166D01*
X152248638Y-107700000D01*
X148379544Y-107700000D01*
X148312505Y-107680315D01*
X148286315Y-107657758D01*
X148279512Y-107650000D01*
X146924000Y-107650000D01*
X146856961Y-107630315D01*
X146811206Y-107577511D01*
X146800000Y-107526000D01*
X146800000Y-107374000D01*
X146819685Y-107306961D01*
X146872489Y-107261206D01*
X146924000Y-107250000D01*
X148279511Y-107250000D01*
X148286317Y-107242240D01*
X148345319Y-107204817D01*
X148379544Y-107200000D01*
X150400000Y-107200000D01*
X151090830Y-106509169D01*
X151152149Y-106475687D01*
X151221840Y-106480671D01*
X151266187Y-106509171D01*
X151301961Y-106544944D01*
X151301965Y-106544947D01*
X151448688Y-106635448D01*
X151448699Y-106635453D01*
X151612347Y-106689680D01*
X151713352Y-106699999D01*
X151750000Y-106699999D01*
X151750000Y-105536500D01*
X151769685Y-105469461D01*
X151822489Y-105423706D01*
X151874000Y-105412500D01*
X152126000Y-105412500D01*
X152193039Y-105432185D01*
G37*
%TD.AperFunction*%
%TD*%
%TA.AperFunction,Conductor*%
%TO.N,VM*%
G36*
X161343039Y-111719685D02*
G01*
X161388794Y-111772489D01*
X161400000Y-111824000D01*
X161400000Y-122776000D01*
X161380315Y-122843039D01*
X161327511Y-122888794D01*
X161276000Y-122900000D01*
X153024000Y-122900000D01*
X152956961Y-122880315D01*
X152911206Y-122827511D01*
X152900000Y-122776000D01*
X152900000Y-120100004D01*
X155494732Y-120100004D01*
X155513777Y-120354154D01*
X155569145Y-120596738D01*
X155570492Y-120602637D01*
X155663607Y-120839888D01*
X155791041Y-121060612D01*
X155949950Y-121259877D01*
X156136783Y-121433232D01*
X156347366Y-121576805D01*
X156347371Y-121576807D01*
X156347372Y-121576808D01*
X156347373Y-121576809D01*
X156469328Y-121635538D01*
X156576992Y-121687387D01*
X156576993Y-121687387D01*
X156576996Y-121687389D01*
X156820542Y-121762513D01*
X157072565Y-121800500D01*
X157327435Y-121800500D01*
X157579458Y-121762513D01*
X157823004Y-121687389D01*
X158052634Y-121576805D01*
X158263217Y-121433232D01*
X158450050Y-121259877D01*
X158608959Y-121060612D01*
X158736393Y-120839888D01*
X158829508Y-120602637D01*
X158886222Y-120354157D01*
X158900196Y-120167679D01*
X158905268Y-120100004D01*
X158905268Y-120099995D01*
X158886222Y-119845845D01*
X158875867Y-119800478D01*
X158829508Y-119597363D01*
X158736393Y-119360112D01*
X158608959Y-119139388D01*
X158450050Y-118940123D01*
X158263217Y-118766768D01*
X158052634Y-118623195D01*
X158052630Y-118623193D01*
X158052627Y-118623191D01*
X158052626Y-118623190D01*
X157823006Y-118512612D01*
X157823008Y-118512612D01*
X157579466Y-118437489D01*
X157579462Y-118437488D01*
X157579458Y-118437487D01*
X157458231Y-118419214D01*
X157327440Y-118399500D01*
X157327435Y-118399500D01*
X157072565Y-118399500D01*
X157072559Y-118399500D01*
X156915609Y-118423157D01*
X156820542Y-118437487D01*
X156820538Y-118437488D01*
X156820539Y-118437488D01*
X156820533Y-118437489D01*
X156576992Y-118512612D01*
X156347373Y-118623190D01*
X156347372Y-118623191D01*
X156136782Y-118766768D01*
X155949952Y-118940121D01*
X155949950Y-118940123D01*
X155791041Y-119139388D01*
X155663608Y-119360109D01*
X155570492Y-119597362D01*
X155570490Y-119597369D01*
X155513777Y-119845845D01*
X155494732Y-120099995D01*
X155494732Y-120100004D01*
X152900000Y-120100004D01*
X152900000Y-116900000D01*
X152567844Y-116567844D01*
X155200000Y-116567844D01*
X155206401Y-116627372D01*
X155206403Y-116627379D01*
X155256645Y-116762086D01*
X155256649Y-116762093D01*
X155342809Y-116877187D01*
X155342812Y-116877190D01*
X155457906Y-116963350D01*
X155457913Y-116963354D01*
X155592620Y-117013596D01*
X155592627Y-117013598D01*
X155652155Y-117019999D01*
X155652172Y-117020000D01*
X156950000Y-117020000D01*
X156950000Y-115898625D01*
X156969685Y-115831586D01*
X157022489Y-115785831D01*
X157091647Y-115775887D01*
X157102589Y-115777966D01*
X157111169Y-115780000D01*
X157111170Y-115780000D01*
X157244260Y-115780000D01*
X157244267Y-115780000D01*
X157311605Y-115772129D01*
X157380475Y-115783897D01*
X157432051Y-115831031D01*
X157450000Y-115895290D01*
X157450000Y-117020000D01*
X158747828Y-117020000D01*
X158747844Y-117019999D01*
X158807372Y-117013598D01*
X158807379Y-117013596D01*
X158942086Y-116963354D01*
X158942093Y-116963350D01*
X159057187Y-116877190D01*
X159057190Y-116877187D01*
X159143350Y-116762093D01*
X159143354Y-116762086D01*
X159193596Y-116627379D01*
X159193598Y-116627372D01*
X159199999Y-116567844D01*
X159200000Y-116567827D01*
X159200000Y-115270000D01*
X158078159Y-115270000D01*
X158011120Y-115250315D01*
X157965365Y-115197511D01*
X157954369Y-115138790D01*
X157963879Y-114975509D01*
X157963878Y-114975506D01*
X157962919Y-114970069D01*
X157953476Y-114916508D01*
X157953304Y-114915531D01*
X157961048Y-114846092D01*
X158005105Y-114791863D01*
X158071487Y-114770062D01*
X158075420Y-114770000D01*
X159200000Y-114770000D01*
X159200000Y-113472172D01*
X159199999Y-113472155D01*
X159193598Y-113412627D01*
X159193596Y-113412620D01*
X159143354Y-113277913D01*
X159143350Y-113277906D01*
X159057190Y-113162812D01*
X159057187Y-113162809D01*
X158942093Y-113076649D01*
X158942086Y-113076645D01*
X158807379Y-113026403D01*
X158807372Y-113026401D01*
X158747844Y-113020000D01*
X157450000Y-113020000D01*
X157450000Y-114141374D01*
X157430315Y-114208413D01*
X157377511Y-114254168D01*
X157308353Y-114264112D01*
X157297407Y-114262032D01*
X157288832Y-114260000D01*
X157288831Y-114260000D01*
X157155733Y-114260000D01*
X157088393Y-114267870D01*
X157019523Y-114256102D01*
X156967948Y-114208966D01*
X156950000Y-114144709D01*
X156950000Y-113020000D01*
X155652155Y-113020000D01*
X155592627Y-113026401D01*
X155592620Y-113026403D01*
X155457913Y-113076645D01*
X155457906Y-113076649D01*
X155342812Y-113162809D01*
X155342809Y-113162812D01*
X155256649Y-113277906D01*
X155256645Y-113277913D01*
X155206403Y-113412620D01*
X155206401Y-113412627D01*
X155200000Y-113472155D01*
X155200000Y-114770000D01*
X156321841Y-114770000D01*
X156388880Y-114789685D01*
X156434635Y-114842489D01*
X156445631Y-114901210D01*
X156436120Y-115064489D01*
X156436121Y-115064491D01*
X156446696Y-115124469D01*
X156438952Y-115193908D01*
X156394895Y-115248137D01*
X156328513Y-115269938D01*
X156324580Y-115270000D01*
X155200000Y-115270000D01*
X155200000Y-116567844D01*
X152567844Y-116567844D01*
X150600000Y-114600000D01*
X150295760Y-114600000D01*
X150278113Y-114598738D01*
X150263996Y-114596708D01*
X150248638Y-114594500D01*
X148949058Y-114594500D01*
X148949057Y-114594500D01*
X148939961Y-114594903D01*
X148914792Y-114597138D01*
X148846274Y-114583460D01*
X148796028Y-114534911D01*
X148780006Y-114466903D01*
X148798288Y-114408522D01*
X148810452Y-114388802D01*
X148810453Y-114388800D01*
X148864680Y-114225152D01*
X148874999Y-114124154D01*
X148875000Y-114124141D01*
X148875000Y-114025000D01*
X147774000Y-114025000D01*
X147706961Y-114005315D01*
X147661206Y-113952511D01*
X147650000Y-113901000D01*
X147650000Y-113649000D01*
X147669685Y-113581961D01*
X147722489Y-113536206D01*
X147774000Y-113525000D01*
X148874999Y-113525000D01*
X148874999Y-113425860D01*
X148874998Y-113425845D01*
X148864680Y-113324847D01*
X148810453Y-113161199D01*
X148810448Y-113161188D01*
X148719947Y-113014465D01*
X148719944Y-113014461D01*
X148598038Y-112892555D01*
X148598034Y-112892552D01*
X148451311Y-112802051D01*
X148451300Y-112802046D01*
X148287652Y-112747819D01*
X148191473Y-112737993D01*
X148126782Y-112711597D01*
X148086630Y-112654416D01*
X148083767Y-112584605D01*
X148111678Y-112535293D01*
X148110477Y-112534372D01*
X148211600Y-112402586D01*
X148272055Y-112256631D01*
X148279512Y-112200000D01*
X147200000Y-112200000D01*
X147200000Y-112699998D01*
X147209871Y-112709870D01*
X147243356Y-112771193D01*
X147238372Y-112840885D01*
X147205564Y-112885943D01*
X147207069Y-112887448D01*
X147080055Y-113014461D01*
X147080052Y-113014465D01*
X146989551Y-113161188D01*
X146989544Y-113161204D01*
X146988285Y-113165004D01*
X146986716Y-113167268D01*
X146986497Y-113167740D01*
X146986416Y-113167702D01*
X146948508Y-113222446D01*
X146883990Y-113249264D01*
X146815215Y-113236944D01*
X146764019Y-113189397D01*
X146760450Y-113182649D01*
X146667315Y-113031654D01*
X146547341Y-112911680D01*
X146513856Y-112850357D01*
X146518840Y-112780665D01*
X146560712Y-112724732D01*
X146626176Y-112700315D01*
X146635022Y-112699999D01*
X146799999Y-112699999D01*
X146800000Y-112699998D01*
X146800000Y-111924000D01*
X146819685Y-111856961D01*
X146872489Y-111811206D01*
X146924000Y-111800000D01*
X148279510Y-111800000D01*
X148293567Y-111783970D01*
X148295567Y-111771149D01*
X148341947Y-111718894D01*
X148407740Y-111700000D01*
X161276000Y-111700000D01*
X161343039Y-111719685D01*
G37*
%TD.AperFunction*%
%TD*%
%TA.AperFunction,Conductor*%
%TO.N,GND*%
G36*
X157389474Y-84517504D02*
G01*
X157394826Y-84517973D01*
X157778659Y-84568506D01*
X157783967Y-84569442D01*
X158161920Y-84653232D01*
X158167119Y-84654625D01*
X158536341Y-84771040D01*
X158541422Y-84772889D01*
X158899088Y-84921039D01*
X158903958Y-84923310D01*
X159247350Y-85102069D01*
X159252028Y-85104771D01*
X159578526Y-85312772D01*
X159582959Y-85315876D01*
X159890077Y-85551536D01*
X159894222Y-85555015D01*
X160179630Y-85816543D01*
X160183456Y-85820369D01*
X160444984Y-86105777D01*
X160448463Y-86109922D01*
X160684123Y-86417040D01*
X160687227Y-86421473D01*
X160895228Y-86747971D01*
X160897934Y-86752657D01*
X161076680Y-87096023D01*
X161078964Y-87100921D01*
X161115423Y-87188940D01*
X161227110Y-87458578D01*
X161228961Y-87463663D01*
X161345368Y-87832858D01*
X161346768Y-87838085D01*
X161430556Y-88216030D01*
X161431496Y-88221359D01*
X161482024Y-88605155D01*
X161482496Y-88610546D01*
X161499500Y-88999999D01*
X161499500Y-92576000D01*
X161479815Y-92643039D01*
X161427011Y-92688794D01*
X161375500Y-92700000D01*
X152700000Y-92700000D01*
X152700000Y-103188839D01*
X152680315Y-103255878D01*
X152627511Y-103301633D01*
X152558353Y-103311577D01*
X152502367Y-103288610D01*
X152444474Y-103245883D01*
X152319848Y-103202274D01*
X152319849Y-103202274D01*
X152290260Y-103199500D01*
X152290256Y-103199500D01*
X151709744Y-103199500D01*
X151709740Y-103199500D01*
X151680150Y-103202274D01*
X151555523Y-103245884D01*
X151449289Y-103324288D01*
X151449288Y-103324289D01*
X151370884Y-103430523D01*
X151327274Y-103555150D01*
X151324871Y-103580779D01*
X151299013Y-103645687D01*
X151263417Y-103676585D01*
X151250048Y-103684304D01*
X151250040Y-103684310D01*
X151224023Y-103715315D01*
X151220369Y-103719304D01*
X150887181Y-104052491D01*
X150825858Y-104085976D01*
X150756166Y-104080992D01*
X150700233Y-104039120D01*
X150675816Y-103973656D01*
X150675500Y-103964810D01*
X150675500Y-103584739D01*
X150672725Y-103555150D01*
X150635756Y-103449500D01*
X150629116Y-103430525D01*
X150550711Y-103324289D01*
X150532147Y-103310588D01*
X150444476Y-103245884D01*
X150319848Y-103202274D01*
X150319849Y-103202274D01*
X150290260Y-103199500D01*
X150290256Y-103199500D01*
X149709744Y-103199500D01*
X149709740Y-103199500D01*
X149680150Y-103202274D01*
X149555523Y-103245884D01*
X149449289Y-103324288D01*
X149449288Y-103324289D01*
X149370884Y-103430523D01*
X149370884Y-103430524D01*
X149336441Y-103528955D01*
X149295719Y-103585731D01*
X149230766Y-103611478D01*
X149219400Y-103612000D01*
X149179422Y-103612000D01*
X149174018Y-103611764D01*
X149168607Y-103611290D01*
X149133692Y-103608235D01*
X149133691Y-103608235D01*
X149094591Y-103618712D01*
X149089311Y-103619883D01*
X149049459Y-103626910D01*
X149044461Y-103628729D01*
X149027617Y-103635706D01*
X149022813Y-103637946D01*
X148989666Y-103661156D01*
X148985106Y-103664062D01*
X148950048Y-103684304D01*
X148950040Y-103684310D01*
X148924023Y-103715315D01*
X148920369Y-103719304D01*
X148481803Y-104157870D01*
X148477814Y-104161525D01*
X148446805Y-104187545D01*
X148426562Y-104222606D01*
X148423656Y-104227166D01*
X148400446Y-104260313D01*
X148398206Y-104265117D01*
X148391229Y-104281961D01*
X148389410Y-104286959D01*
X148382383Y-104326812D01*
X148381212Y-104332094D01*
X148379489Y-104338521D01*
X148343124Y-104398181D01*
X148280277Y-104428709D01*
X148210901Y-104420414D01*
X148161339Y-104381912D01*
X148115426Y-104322076D01*
X147990086Y-104225899D01*
X147844134Y-104165445D01*
X147844130Y-104165444D01*
X147726830Y-104150000D01*
X147200000Y-104150000D01*
X147200000Y-104926000D01*
X147180315Y-104993039D01*
X147127511Y-105038794D01*
X147076000Y-105050000D01*
X146924000Y-105050000D01*
X146856961Y-105030315D01*
X146811206Y-104977511D01*
X146800000Y-104926000D01*
X146800000Y-104150000D01*
X146273182Y-104150000D01*
X146236260Y-104154861D01*
X146167225Y-104144093D01*
X146145766Y-104131187D01*
X146104204Y-104100073D01*
X146062334Y-104044139D01*
X146057350Y-103974447D01*
X146090836Y-103913124D01*
X146113419Y-103895268D01*
X146235539Y-103819943D01*
X146357445Y-103698037D01*
X146420888Y-103595180D01*
X146472836Y-103548455D01*
X146541798Y-103537232D01*
X146600058Y-103560504D01*
X146678928Y-103618712D01*
X146693025Y-103629116D01*
X146817651Y-103672725D01*
X146817650Y-103672725D01*
X146847240Y-103675500D01*
X146847244Y-103675500D01*
X147552760Y-103675500D01*
X147582349Y-103672725D01*
X147706975Y-103629116D01*
X147813211Y-103550711D01*
X147891616Y-103444475D01*
X147935225Y-103319849D01*
X147935390Y-103318085D01*
X147938000Y-103290260D01*
X147938000Y-102709739D01*
X147935225Y-102680150D01*
X147891615Y-102555523D01*
X147813211Y-102449289D01*
X147813210Y-102449288D01*
X147706976Y-102370884D01*
X147706977Y-102370884D01*
X147683544Y-102362685D01*
X147626769Y-102321963D01*
X147601022Y-102257010D01*
X147600500Y-102245644D01*
X147600500Y-102106580D01*
X147620185Y-102039541D01*
X147626124Y-102031093D01*
X147628279Y-102028283D01*
X147628282Y-102028282D01*
X147724536Y-101902841D01*
X147785044Y-101756762D01*
X147798802Y-101652254D01*
X147805682Y-101600001D01*
X147805682Y-101599998D01*
X147785044Y-101443239D01*
X147785044Y-101443238D01*
X147724536Y-101297159D01*
X147628282Y-101171718D01*
X147502841Y-101075464D01*
X147356762Y-101014956D01*
X147356760Y-101014955D01*
X147200001Y-100994318D01*
X147199999Y-100994318D01*
X147043239Y-101014955D01*
X147043237Y-101014956D01*
X146897160Y-101075463D01*
X146771718Y-101171718D01*
X146675463Y-101297160D01*
X146614956Y-101443237D01*
X146614955Y-101443239D01*
X146594318Y-101599998D01*
X146594318Y-101600001D01*
X146614955Y-101756760D01*
X146614956Y-101756762D01*
X146675464Y-101902841D01*
X146771718Y-102028282D01*
X146771720Y-102028283D01*
X146773876Y-102031093D01*
X146799070Y-102096263D01*
X146799500Y-102106580D01*
X146799500Y-102245644D01*
X146779815Y-102312683D01*
X146727011Y-102358438D01*
X146716456Y-102362685D01*
X146693025Y-102370883D01*
X146600060Y-102439494D01*
X146534430Y-102463464D01*
X146466260Y-102448148D01*
X146420888Y-102404820D01*
X146357443Y-102301960D01*
X146235538Y-102180055D01*
X146235534Y-102180052D01*
X146088811Y-102089551D01*
X146088800Y-102089546D01*
X145925152Y-102035319D01*
X145824154Y-102025000D01*
X145725000Y-102025000D01*
X145725000Y-103126000D01*
X145705315Y-103193039D01*
X145652511Y-103238794D01*
X145601000Y-103250000D01*
X144437501Y-103250000D01*
X144437501Y-103286654D01*
X144447819Y-103387652D01*
X144502046Y-103551300D01*
X144502051Y-103551311D01*
X144592552Y-103698034D01*
X144592555Y-103698038D01*
X144707836Y-103813319D01*
X144741321Y-103874642D01*
X144736337Y-103944334D01*
X144694465Y-104000267D01*
X144629001Y-104024684D01*
X144620155Y-104025000D01*
X144387500Y-104025000D01*
X144387500Y-108551000D01*
X144367815Y-108618039D01*
X144315011Y-108663794D01*
X144263500Y-108675000D01*
X144011500Y-108675000D01*
X143944461Y-108655315D01*
X143898706Y-108602511D01*
X143887500Y-108551000D01*
X143887500Y-104025000D01*
X143654845Y-104025000D01*
X143587806Y-104005315D01*
X143542051Y-103952511D01*
X143532107Y-103883353D01*
X143561132Y-103819797D01*
X143567164Y-103813319D01*
X143682444Y-103698038D01*
X143682447Y-103698034D01*
X143772948Y-103551311D01*
X143772953Y-103551300D01*
X143827180Y-103387652D01*
X143837499Y-103286654D01*
X143837500Y-103286641D01*
X143837500Y-103250000D01*
X142674000Y-103250000D01*
X142606961Y-103230315D01*
X142561206Y-103177511D01*
X142550000Y-103126000D01*
X142550000Y-102025000D01*
X143050000Y-102025000D01*
X143050000Y-102750000D01*
X143837499Y-102750000D01*
X144437500Y-102750000D01*
X145225000Y-102750000D01*
X145225000Y-102024999D01*
X145125860Y-102025000D01*
X145125844Y-102025001D01*
X145024847Y-102035319D01*
X144861199Y-102089546D01*
X144861188Y-102089551D01*
X144714465Y-102180052D01*
X144714461Y-102180055D01*
X144592555Y-102301961D01*
X144592552Y-102301965D01*
X144502051Y-102448688D01*
X144502046Y-102448699D01*
X144447819Y-102612347D01*
X144437500Y-102713345D01*
X144437500Y-102750000D01*
X143837499Y-102750000D01*
X143837499Y-102713360D01*
X143837498Y-102713345D01*
X143827180Y-102612347D01*
X143772953Y-102448699D01*
X143772948Y-102448688D01*
X143682447Y-102301965D01*
X143682444Y-102301961D01*
X143560538Y-102180055D01*
X143560534Y-102180052D01*
X143413811Y-102089551D01*
X143413800Y-102089546D01*
X143250152Y-102035319D01*
X143149154Y-102025000D01*
X143050000Y-102025000D01*
X142550000Y-102025000D01*
X142550000Y-102024999D01*
X142450860Y-102025000D01*
X142450844Y-102025001D01*
X142349847Y-102035319D01*
X142186199Y-102089546D01*
X142186188Y-102089551D01*
X142039465Y-102180052D01*
X142039461Y-102180055D01*
X141917554Y-102301962D01*
X141854110Y-102404821D01*
X141802162Y-102451545D01*
X141733199Y-102462766D01*
X141674939Y-102439494D01*
X141581974Y-102370883D01*
X141457348Y-102327274D01*
X141457349Y-102327274D01*
X141427760Y-102324500D01*
X141427756Y-102324500D01*
X140722244Y-102324500D01*
X140722240Y-102324500D01*
X140692650Y-102327274D01*
X140568023Y-102370884D01*
X140461789Y-102449288D01*
X140461788Y-102449289D01*
X140383384Y-102555523D01*
X140370811Y-102591456D01*
X140330089Y-102648231D01*
X140265136Y-102673978D01*
X140253770Y-102674500D01*
X138986188Y-102674500D01*
X138919149Y-102654815D01*
X138898507Y-102638181D01*
X138361819Y-102101493D01*
X138328334Y-102040170D01*
X138325500Y-102013812D01*
X138325500Y-100616912D01*
X138325736Y-100611506D01*
X138329263Y-100571191D01*
X138318785Y-100532090D01*
X138317618Y-100526830D01*
X138310588Y-100486955D01*
X138310587Y-100486953D01*
X138308760Y-100481933D01*
X138301820Y-100465176D01*
X138299554Y-100460319D01*
X138299554Y-100460316D01*
X138276339Y-100427162D01*
X138273433Y-100422599D01*
X138253196Y-100387548D01*
X138253195Y-100387547D01*
X138253194Y-100387545D01*
X138222177Y-100361518D01*
X138218193Y-100357867D01*
X137944882Y-100084556D01*
X137642119Y-99781793D01*
X137638474Y-99777814D01*
X137612456Y-99746807D01*
X137612455Y-99746806D01*
X137601058Y-99740226D01*
X137577392Y-99726561D01*
X137572831Y-99723655D01*
X137559687Y-99714452D01*
X137539684Y-99700446D01*
X137539681Y-99700445D01*
X137534861Y-99698197D01*
X137518055Y-99691235D01*
X137513043Y-99689411D01*
X137473190Y-99682383D01*
X137467910Y-99681212D01*
X137428808Y-99670735D01*
X137393892Y-99673790D01*
X137388481Y-99674264D01*
X137383078Y-99674500D01*
X136524500Y-99674500D01*
X136457461Y-99654815D01*
X136411706Y-99602011D01*
X136400500Y-99550500D01*
X136400500Y-99230249D01*
X136400499Y-99230247D01*
X136388868Y-99171770D01*
X136388867Y-99171769D01*
X136344552Y-99105447D01*
X136278230Y-99061132D01*
X136278229Y-99061131D01*
X136219752Y-99049500D01*
X136219748Y-99049500D01*
X135180252Y-99049500D01*
X135180247Y-99049500D01*
X135121770Y-99061131D01*
X135121763Y-99061134D01*
X135118882Y-99063060D01*
X135111653Y-99065322D01*
X135110487Y-99065806D01*
X135110443Y-99065701D01*
X135052203Y-99083933D01*
X134984824Y-99065444D01*
X134981108Y-99063055D01*
X134978230Y-99061132D01*
X134978229Y-99061131D01*
X134919752Y-99049500D01*
X134919748Y-99049500D01*
X133880252Y-99049500D01*
X133880247Y-99049500D01*
X133821770Y-99061131D01*
X133821769Y-99061132D01*
X133755447Y-99105447D01*
X133711132Y-99171769D01*
X133711131Y-99171770D01*
X133699500Y-99230247D01*
X133699500Y-100769752D01*
X133711131Y-100828229D01*
X133711132Y-100828230D01*
X133755447Y-100894552D01*
X133821769Y-100938867D01*
X133821770Y-100938868D01*
X133880247Y-100950499D01*
X133880250Y-100950500D01*
X133880252Y-100950500D01*
X133950500Y-100950500D01*
X134017539Y-100970185D01*
X134063294Y-101022989D01*
X134074500Y-101074500D01*
X134074500Y-102893029D01*
X134054815Y-102960068D01*
X134019391Y-102996131D01*
X134005447Y-103005447D01*
X133961132Y-103071769D01*
X133961131Y-103071770D01*
X133949500Y-103130247D01*
X133949500Y-104869752D01*
X133961131Y-104928229D01*
X133961132Y-104928230D01*
X134005447Y-104994552D01*
X134071769Y-105038867D01*
X134071770Y-105038868D01*
X134130247Y-105050499D01*
X134130250Y-105050500D01*
X134130252Y-105050500D01*
X135869750Y-105050500D01*
X135869751Y-105050499D01*
X135884568Y-105047552D01*
X135928229Y-105038868D01*
X135928229Y-105038867D01*
X135928231Y-105038867D01*
X135994552Y-104994552D01*
X136038867Y-104928231D01*
X136038867Y-104928229D01*
X136038868Y-104928229D01*
X136050499Y-104869752D01*
X136050500Y-104869750D01*
X136050500Y-103130249D01*
X136050499Y-103130247D01*
X136038868Y-103071770D01*
X136038867Y-103071769D01*
X135994552Y-103005447D01*
X135928230Y-102961132D01*
X135928229Y-102961131D01*
X135869752Y-102949500D01*
X135869748Y-102949500D01*
X134849500Y-102949500D01*
X134782461Y-102929815D01*
X134736706Y-102877011D01*
X134725500Y-102825500D01*
X134725500Y-101074500D01*
X134745185Y-101007461D01*
X134797989Y-100961706D01*
X134849500Y-100950500D01*
X134919750Y-100950500D01*
X134919751Y-100950499D01*
X134934568Y-100947552D01*
X134978229Y-100938868D01*
X134978231Y-100938867D01*
X134981108Y-100936945D01*
X134988335Y-100934681D01*
X134989513Y-100934194D01*
X134989556Y-100934299D01*
X135047785Y-100916066D01*
X135115165Y-100934550D01*
X135118892Y-100936945D01*
X135121768Y-100938867D01*
X135121770Y-100938868D01*
X135180247Y-100950499D01*
X135180250Y-100950500D01*
X135180252Y-100950500D01*
X136219750Y-100950500D01*
X136219751Y-100950499D01*
X136234568Y-100947552D01*
X136278229Y-100938868D01*
X136278229Y-100938867D01*
X136278231Y-100938867D01*
X136344552Y-100894552D01*
X136388867Y-100828231D01*
X136388867Y-100828229D01*
X136388868Y-100828229D01*
X136400499Y-100769752D01*
X136400500Y-100769750D01*
X136400500Y-100449500D01*
X136420185Y-100382461D01*
X136472989Y-100336706D01*
X136524500Y-100325500D01*
X137213812Y-100325500D01*
X137280851Y-100345185D01*
X137301493Y-100361819D01*
X137638181Y-100698506D01*
X137671666Y-100759829D01*
X137674500Y-100786187D01*
X137674500Y-102183078D01*
X137674264Y-102188485D01*
X137670735Y-102228808D01*
X137681212Y-102267910D01*
X137682383Y-102273190D01*
X137689411Y-102313043D01*
X137691235Y-102318055D01*
X137698197Y-102334861D01*
X137700445Y-102339681D01*
X137700446Y-102339684D01*
X137713578Y-102358438D01*
X137723655Y-102372831D01*
X137726561Y-102377392D01*
X137746806Y-102412455D01*
X137777815Y-102438475D01*
X137781805Y-102442131D01*
X138557863Y-103218189D01*
X138561518Y-103222178D01*
X138587541Y-103253190D01*
X138587543Y-103253191D01*
X138587545Y-103253194D01*
X138587547Y-103253195D01*
X138587548Y-103253196D01*
X138622599Y-103273433D01*
X138627162Y-103276339D01*
X138660316Y-103299554D01*
X138660319Y-103299554D01*
X138665176Y-103301820D01*
X138681933Y-103308760D01*
X138686953Y-103310587D01*
X138686955Y-103310588D01*
X138722806Y-103316909D01*
X138726808Y-103317615D01*
X138732080Y-103318783D01*
X138771193Y-103329264D01*
X138811522Y-103325735D01*
X138816924Y-103325500D01*
X139450500Y-103325500D01*
X139517539Y-103345185D01*
X139563294Y-103397989D01*
X139574500Y-103449500D01*
X139574499Y-104227302D01*
X139554814Y-104294342D01*
X139502010Y-104340096D01*
X139432852Y-104350040D01*
X139369296Y-104321015D01*
X139352124Y-104302789D01*
X139339859Y-104286806D01*
X139328282Y-104271718D01*
X139202841Y-104175464D01*
X139184367Y-104167812D01*
X139056762Y-104114956D01*
X139056760Y-104114955D01*
X138900001Y-104094318D01*
X138899999Y-104094318D01*
X138743239Y-104114955D01*
X138743237Y-104114956D01*
X138597160Y-104175463D01*
X138471718Y-104271718D01*
X138375463Y-104397160D01*
X138314956Y-104543237D01*
X138314955Y-104543239D01*
X138294318Y-104699998D01*
X138294318Y-104700001D01*
X138314955Y-104856760D01*
X138314956Y-104856762D01*
X138372030Y-104994552D01*
X138375464Y-105002841D01*
X138471718Y-105128282D01*
X138597159Y-105224536D01*
X138743238Y-105285044D01*
X138771548Y-105288771D01*
X138899999Y-105305682D01*
X138900000Y-105305682D01*
X138900001Y-105305682D01*
X138950152Y-105299079D01*
X138967818Y-105296753D01*
X139036853Y-105307518D01*
X139071685Y-105332011D01*
X139352493Y-105612819D01*
X139385978Y-105674142D01*
X139380994Y-105743834D01*
X139339122Y-105799767D01*
X139273658Y-105824184D01*
X139264812Y-105824500D01*
X133936188Y-105824500D01*
X133869149Y-105804815D01*
X133848507Y-105788181D01*
X133128233Y-105067907D01*
X132382119Y-104321793D01*
X132378474Y-104317814D01*
X132352456Y-104286807D01*
X132352455Y-104286806D01*
X132341058Y-104280226D01*
X132317392Y-104266561D01*
X132312831Y-104263655D01*
X132291859Y-104248971D01*
X132279684Y-104240446D01*
X132279681Y-104240445D01*
X132274861Y-104238197D01*
X132258055Y-104231235D01*
X132253043Y-104229411D01*
X132213190Y-104222383D01*
X132207910Y-104221212D01*
X132168808Y-104210735D01*
X132133892Y-104213790D01*
X132128481Y-104214264D01*
X132123078Y-104214500D01*
X125876188Y-104214500D01*
X125809149Y-104194815D01*
X125788507Y-104178181D01*
X125413282Y-103802956D01*
X125379797Y-103741633D01*
X125384781Y-103671941D01*
X125387384Y-103665518D01*
X125479157Y-103456300D01*
X125536134Y-103231305D01*
X125536216Y-103230315D01*
X125555300Y-103000006D01*
X125555300Y-102999993D01*
X125536135Y-102768702D01*
X125536133Y-102768691D01*
X125479157Y-102543699D01*
X125385924Y-102331151D01*
X125258983Y-102136852D01*
X125258980Y-102136849D01*
X125258979Y-102136847D01*
X125101784Y-101966087D01*
X125101779Y-101966083D01*
X125101777Y-101966081D01*
X124918634Y-101823535D01*
X124918628Y-101823531D01*
X124714504Y-101713064D01*
X124714495Y-101713061D01*
X124494984Y-101637702D01*
X124323281Y-101609050D01*
X124266049Y-101599500D01*
X124033951Y-101599500D01*
X123988164Y-101607140D01*
X123805015Y-101637702D01*
X123585504Y-101713061D01*
X123585495Y-101713064D01*
X123381371Y-101823531D01*
X123381365Y-101823535D01*
X123198222Y-101966081D01*
X123198219Y-101966084D01*
X123041016Y-102136852D01*
X122914075Y-102331151D01*
X122820842Y-102543699D01*
X122763866Y-102768691D01*
X122763864Y-102768702D01*
X122744700Y-102999993D01*
X122744700Y-103000006D01*
X122763864Y-103231297D01*
X122763866Y-103231308D01*
X122820842Y-103456300D01*
X122914075Y-103668848D01*
X123041016Y-103863147D01*
X123041019Y-103863151D01*
X123041021Y-103863153D01*
X123198216Y-104033913D01*
X123198219Y-104033915D01*
X123198222Y-104033918D01*
X123381365Y-104176464D01*
X123381371Y-104176468D01*
X123381374Y-104176470D01*
X123496744Y-104238905D01*
X123585258Y-104286807D01*
X123585497Y-104286936D01*
X123675442Y-104317814D01*
X123805015Y-104362297D01*
X123805017Y-104362297D01*
X123805019Y-104362298D01*
X124033951Y-104400500D01*
X124033952Y-104400500D01*
X124266048Y-104400500D01*
X124266049Y-104400500D01*
X124494981Y-104362298D01*
X124714503Y-104286936D01*
X124803257Y-104238903D01*
X124871580Y-104224309D01*
X124936953Y-104248971D01*
X124949952Y-104260278D01*
X125447863Y-104758189D01*
X125451518Y-104762178D01*
X125477541Y-104793190D01*
X125477543Y-104793191D01*
X125477545Y-104793194D01*
X125477547Y-104793195D01*
X125477548Y-104793196D01*
X125512599Y-104813433D01*
X125517162Y-104816339D01*
X125550316Y-104839554D01*
X125550319Y-104839554D01*
X125555176Y-104841820D01*
X125571933Y-104848760D01*
X125576950Y-104850586D01*
X125576952Y-104850586D01*
X125576955Y-104850588D01*
X125616818Y-104857616D01*
X125622076Y-104858782D01*
X125661193Y-104869264D01*
X125701518Y-104865735D01*
X125706922Y-104865500D01*
X129971525Y-104865500D01*
X131953812Y-104865500D01*
X132020851Y-104885185D01*
X132041493Y-104901819D01*
X133507863Y-106368189D01*
X133511518Y-106372178D01*
X133537541Y-106403190D01*
X133537543Y-106403191D01*
X133537545Y-106403194D01*
X133537547Y-106403195D01*
X133537548Y-106403196D01*
X133572599Y-106423433D01*
X133577162Y-106426339D01*
X133610316Y-106449554D01*
X133610319Y-106449554D01*
X133615176Y-106451820D01*
X133631933Y-106458760D01*
X133636953Y-106460587D01*
X133636955Y-106460588D01*
X133672806Y-106466909D01*
X133676808Y-106467615D01*
X133682080Y-106468783D01*
X133721193Y-106479264D01*
X133761522Y-106475735D01*
X133766924Y-106475500D01*
X134394102Y-106475500D01*
X134461141Y-106495185D01*
X134506896Y-106547989D01*
X134516840Y-106617147D01*
X134492477Y-106674987D01*
X134475464Y-106697157D01*
X134414956Y-106843237D01*
X134414955Y-106843239D01*
X134394318Y-106999998D01*
X134394318Y-107000001D01*
X134414955Y-107156760D01*
X134414956Y-107156762D01*
X134475464Y-107302841D01*
X134571718Y-107428282D01*
X134580235Y-107434817D01*
X134617872Y-107463697D01*
X134659075Y-107520125D01*
X134663230Y-107589871D01*
X134640762Y-107637559D01*
X134575464Y-107722657D01*
X134514956Y-107868737D01*
X134514955Y-107868739D01*
X134494318Y-108025498D01*
X134494318Y-108025501D01*
X134514955Y-108182260D01*
X134514956Y-108182262D01*
X134551294Y-108269991D01*
X134575464Y-108328341D01*
X134671718Y-108453782D01*
X134797159Y-108550036D01*
X134943238Y-108610544D01*
X135021619Y-108620862D01*
X135099999Y-108631182D01*
X135100000Y-108631182D01*
X135100001Y-108631182D01*
X135152254Y-108624302D01*
X135256762Y-108610544D01*
X135402841Y-108550036D01*
X135528282Y-108453782D01*
X135624536Y-108328341D01*
X135685044Y-108182262D01*
X135705682Y-108025500D01*
X135696753Y-107957681D01*
X135707518Y-107888647D01*
X135732012Y-107853814D01*
X135774009Y-107811818D01*
X135835332Y-107778333D01*
X135861689Y-107775500D01*
X136240278Y-107775500D01*
X136307317Y-107795185D01*
X136353072Y-107847989D01*
X136363016Y-107917147D01*
X136354839Y-107946953D01*
X136314956Y-108043237D01*
X136314955Y-108043239D01*
X136294318Y-108199998D01*
X136294318Y-108200001D01*
X136314955Y-108356760D01*
X136314956Y-108356762D01*
X136364857Y-108477235D01*
X136375464Y-108502841D01*
X136471718Y-108628282D01*
X136597159Y-108724536D01*
X136743238Y-108785044D01*
X136821619Y-108795362D01*
X136899999Y-108805682D01*
X136900000Y-108805682D01*
X136900001Y-108805682D01*
X136952254Y-108798802D01*
X137056762Y-108785044D01*
X137160030Y-108742268D01*
X137229497Y-108734800D01*
X137291976Y-108766075D01*
X137327629Y-108826164D01*
X137325136Y-108895989D01*
X137295163Y-108944510D01*
X137201491Y-109038182D01*
X137140171Y-109071666D01*
X137113812Y-109074500D01*
X134786189Y-109074500D01*
X134719150Y-109054815D01*
X134698508Y-109038181D01*
X134017087Y-108356760D01*
X131942119Y-106281793D01*
X131938474Y-106277814D01*
X131912456Y-106246807D01*
X131912455Y-106246806D01*
X131900120Y-106239684D01*
X131877392Y-106226561D01*
X131872831Y-106223655D01*
X131857677Y-106213045D01*
X131839684Y-106200446D01*
X131839681Y-106200445D01*
X131834861Y-106198197D01*
X131818055Y-106191235D01*
X131813043Y-106189411D01*
X131773190Y-106182383D01*
X131767910Y-106181212D01*
X131728808Y-106170735D01*
X131693892Y-106173790D01*
X131688481Y-106174264D01*
X131683078Y-106174500D01*
X125608793Y-106174500D01*
X125541754Y-106154815D01*
X125495999Y-106102011D01*
X125488587Y-106080939D01*
X125483408Y-106060489D01*
X125479157Y-106043700D01*
X125385924Y-105831151D01*
X125313379Y-105720112D01*
X125258983Y-105636852D01*
X125258980Y-105636849D01*
X125258979Y-105636847D01*
X125101784Y-105466087D01*
X125101779Y-105466083D01*
X125101777Y-105466081D01*
X124918634Y-105323535D01*
X124918628Y-105323531D01*
X124714504Y-105213064D01*
X124714495Y-105213061D01*
X124494984Y-105137702D01*
X124323281Y-105109050D01*
X124266049Y-105099500D01*
X124033951Y-105099500D01*
X123988164Y-105107140D01*
X123805015Y-105137702D01*
X123585504Y-105213061D01*
X123585495Y-105213064D01*
X123381371Y-105323531D01*
X123381365Y-105323535D01*
X123198222Y-105466081D01*
X123198219Y-105466084D01*
X123041016Y-105636852D01*
X122914075Y-105831151D01*
X122820842Y-106043699D01*
X122763866Y-106268691D01*
X122763864Y-106268702D01*
X122744700Y-106499993D01*
X122744700Y-106500006D01*
X122763864Y-106731297D01*
X122763866Y-106731308D01*
X122820842Y-106956300D01*
X122914075Y-107168848D01*
X123041016Y-107363147D01*
X123041019Y-107363151D01*
X123041021Y-107363153D01*
X123198216Y-107533913D01*
X123198219Y-107533915D01*
X123198222Y-107533918D01*
X123381365Y-107676464D01*
X123381371Y-107676468D01*
X123381374Y-107676470D01*
X123585497Y-107786936D01*
X123699487Y-107826068D01*
X123805015Y-107862297D01*
X123805017Y-107862297D01*
X123805019Y-107862298D01*
X124033951Y-107900500D01*
X124033952Y-107900500D01*
X124266048Y-107900500D01*
X124266049Y-107900500D01*
X124494981Y-107862298D01*
X124714503Y-107786936D01*
X124918626Y-107676470D01*
X125101784Y-107533913D01*
X125258979Y-107363153D01*
X125385924Y-107168849D01*
X125479157Y-106956300D01*
X125488587Y-106919060D01*
X125524126Y-106858905D01*
X125586546Y-106827512D01*
X125608793Y-106825500D01*
X131513812Y-106825500D01*
X131580851Y-106845185D01*
X131601493Y-106861819D01*
X134202492Y-109462819D01*
X134235977Y-109524142D01*
X134230993Y-109593834D01*
X134189121Y-109649767D01*
X134123657Y-109674184D01*
X134114811Y-109674500D01*
X125608793Y-109674500D01*
X125541754Y-109654815D01*
X125495999Y-109602011D01*
X125488587Y-109580939D01*
X125479157Y-109543700D01*
X125385924Y-109331151D01*
X125258983Y-109136852D01*
X125258980Y-109136849D01*
X125258979Y-109136847D01*
X125101784Y-108966087D01*
X125101779Y-108966083D01*
X125101777Y-108966081D01*
X124918634Y-108823535D01*
X124918628Y-108823531D01*
X124714504Y-108713064D01*
X124714495Y-108713061D01*
X124494984Y-108637702D01*
X124323281Y-108609050D01*
X124266049Y-108599500D01*
X124033951Y-108599500D01*
X123988164Y-108607140D01*
X123805015Y-108637702D01*
X123585504Y-108713061D01*
X123585495Y-108713064D01*
X123381371Y-108823531D01*
X123381365Y-108823535D01*
X123198222Y-108966081D01*
X123198219Y-108966084D01*
X123041016Y-109136852D01*
X122914075Y-109331151D01*
X122820842Y-109543699D01*
X122763866Y-109768691D01*
X122763864Y-109768702D01*
X122744700Y-109999993D01*
X122744700Y-110000006D01*
X122763864Y-110231297D01*
X122763866Y-110231308D01*
X122820842Y-110456300D01*
X122914075Y-110668848D01*
X123041016Y-110863147D01*
X123041019Y-110863151D01*
X123041021Y-110863153D01*
X123198216Y-111033913D01*
X123198219Y-111033915D01*
X123198222Y-111033918D01*
X123381365Y-111176464D01*
X123381371Y-111176468D01*
X123381374Y-111176470D01*
X123585497Y-111286936D01*
X123689400Y-111322606D01*
X123805015Y-111362297D01*
X123805017Y-111362297D01*
X123805019Y-111362298D01*
X124033951Y-111400500D01*
X124033952Y-111400500D01*
X124266048Y-111400500D01*
X124266049Y-111400500D01*
X124494981Y-111362298D01*
X124714503Y-111286936D01*
X124918626Y-111176470D01*
X125101784Y-111033913D01*
X125258979Y-110863153D01*
X125385924Y-110668849D01*
X125479157Y-110456300D01*
X125488587Y-110419060D01*
X125524126Y-110358905D01*
X125586546Y-110327512D01*
X125608793Y-110325500D01*
X137314812Y-110325500D01*
X137381851Y-110345185D01*
X137427606Y-110397989D01*
X137437550Y-110467147D01*
X137408525Y-110530703D01*
X137402493Y-110537181D01*
X136681802Y-111257870D01*
X136677814Y-111261525D01*
X136646805Y-111287545D01*
X136626562Y-111322606D01*
X136623656Y-111327166D01*
X136600446Y-111360313D01*
X136598206Y-111365117D01*
X136591229Y-111381961D01*
X136589410Y-111386959D01*
X136582383Y-111426811D01*
X136581212Y-111432091D01*
X136570735Y-111471191D01*
X136574264Y-111511513D01*
X136574500Y-111516920D01*
X136574500Y-113413811D01*
X136554815Y-113480850D01*
X136538181Y-113501492D01*
X136301493Y-113738181D01*
X136240170Y-113771666D01*
X136213812Y-113774500D01*
X132126188Y-113774500D01*
X132059149Y-113754815D01*
X132038507Y-113738181D01*
X131812779Y-113512453D01*
X131582119Y-113281793D01*
X131578474Y-113277814D01*
X131552456Y-113246807D01*
X131552455Y-113246806D01*
X131541058Y-113240226D01*
X131517392Y-113226561D01*
X131512831Y-113223655D01*
X131499687Y-113214452D01*
X131479684Y-113200446D01*
X131479681Y-113200445D01*
X131474861Y-113198197D01*
X131458055Y-113191235D01*
X131453043Y-113189411D01*
X131413190Y-113182383D01*
X131407910Y-113181212D01*
X131368808Y-113170735D01*
X131333892Y-113173790D01*
X131328481Y-113174264D01*
X131323078Y-113174500D01*
X125608793Y-113174500D01*
X125541754Y-113154815D01*
X125495999Y-113102011D01*
X125488587Y-113080939D01*
X125479157Y-113043700D01*
X125402856Y-112869752D01*
X133949500Y-112869752D01*
X133961131Y-112928229D01*
X133961132Y-112928230D01*
X134005447Y-112994552D01*
X134071769Y-113038867D01*
X134071770Y-113038868D01*
X134130247Y-113050499D01*
X134130250Y-113050500D01*
X134130252Y-113050500D01*
X135869750Y-113050500D01*
X135869751Y-113050499D01*
X135884568Y-113047552D01*
X135928229Y-113038868D01*
X135928229Y-113038867D01*
X135928231Y-113038867D01*
X135994552Y-112994552D01*
X136038867Y-112928231D01*
X136038867Y-112928229D01*
X136038868Y-112928229D01*
X136050499Y-112869752D01*
X136050500Y-112869750D01*
X136050500Y-111130249D01*
X136050499Y-111130247D01*
X136038868Y-111071770D01*
X136038867Y-111071769D01*
X135994552Y-111005447D01*
X135928230Y-110961132D01*
X135928229Y-110961131D01*
X135869752Y-110949500D01*
X135869748Y-110949500D01*
X134130252Y-110949500D01*
X134130247Y-110949500D01*
X134071770Y-110961131D01*
X134071769Y-110961132D01*
X134005447Y-111005447D01*
X133961132Y-111071769D01*
X133961131Y-111071770D01*
X133949500Y-111130247D01*
X133949500Y-112869752D01*
X125402856Y-112869752D01*
X125385924Y-112831151D01*
X125258983Y-112636852D01*
X125258980Y-112636849D01*
X125258979Y-112636847D01*
X125101784Y-112466087D01*
X125101779Y-112466083D01*
X125101777Y-112466081D01*
X124918634Y-112323535D01*
X124918628Y-112323531D01*
X124714504Y-112213064D01*
X124714495Y-112213061D01*
X124494984Y-112137702D01*
X124323282Y-112109050D01*
X124266049Y-112099500D01*
X124033951Y-112099500D01*
X123988164Y-112107140D01*
X123805015Y-112137702D01*
X123585504Y-112213061D01*
X123585495Y-112213064D01*
X123381371Y-112323531D01*
X123381365Y-112323535D01*
X123198222Y-112466081D01*
X123198219Y-112466084D01*
X123041016Y-112636852D01*
X122914075Y-112831151D01*
X122820842Y-113043699D01*
X122763866Y-113268691D01*
X122763864Y-113268702D01*
X122744700Y-113499993D01*
X122744700Y-113500006D01*
X122763864Y-113731297D01*
X122763866Y-113731308D01*
X122820842Y-113956300D01*
X122914075Y-114168848D01*
X123041016Y-114363147D01*
X123041019Y-114363151D01*
X123041021Y-114363153D01*
X123198216Y-114533913D01*
X123198219Y-114533915D01*
X123198222Y-114533918D01*
X123381365Y-114676464D01*
X123381371Y-114676468D01*
X123381374Y-114676470D01*
X123585497Y-114786936D01*
X123680892Y-114819685D01*
X123805015Y-114862297D01*
X123805017Y-114862297D01*
X123805019Y-114862298D01*
X124033951Y-114900500D01*
X124033952Y-114900500D01*
X124266048Y-114900500D01*
X124266049Y-114900500D01*
X124494981Y-114862298D01*
X124714503Y-114786936D01*
X124918626Y-114676470D01*
X125101784Y-114533913D01*
X125258979Y-114363153D01*
X125385924Y-114168849D01*
X125479157Y-113956300D01*
X125488587Y-113919060D01*
X125524126Y-113858905D01*
X125586546Y-113827512D01*
X125608793Y-113825500D01*
X131153812Y-113825500D01*
X131220851Y-113845185D01*
X131241493Y-113861819D01*
X131542493Y-114162819D01*
X131575978Y-114224142D01*
X131570994Y-114293834D01*
X131529122Y-114349767D01*
X131463658Y-114374184D01*
X131454812Y-114374500D01*
X128316913Y-114374500D01*
X128311511Y-114374264D01*
X128304126Y-114373618D01*
X128271192Y-114370736D01*
X128271191Y-114370736D01*
X128232099Y-114381211D01*
X128226819Y-114382382D01*
X128186954Y-114389412D01*
X128181962Y-114391229D01*
X128165117Y-114398206D01*
X128160313Y-114400446D01*
X128127163Y-114423658D01*
X128122602Y-114426564D01*
X128087548Y-114446804D01*
X128087545Y-114446806D01*
X128087543Y-114446807D01*
X128087542Y-114446809D01*
X128061523Y-114477815D01*
X128057868Y-114481803D01*
X126425863Y-116113811D01*
X125901493Y-116638181D01*
X125840170Y-116671666D01*
X125813812Y-116674500D01*
X125608793Y-116674500D01*
X125541754Y-116654815D01*
X125495999Y-116602011D01*
X125488587Y-116580939D01*
X125479157Y-116543700D01*
X125385924Y-116331151D01*
X125258983Y-116136852D01*
X125258980Y-116136849D01*
X125258979Y-116136847D01*
X125101784Y-115966087D01*
X125101779Y-115966083D01*
X125101777Y-115966081D01*
X124918634Y-115823535D01*
X124918628Y-115823531D01*
X124714504Y-115713064D01*
X124714495Y-115713061D01*
X124494984Y-115637702D01*
X124323282Y-115609050D01*
X124266049Y-115599500D01*
X124033951Y-115599500D01*
X123988164Y-115607140D01*
X123805015Y-115637702D01*
X123585504Y-115713061D01*
X123585495Y-115713064D01*
X123381371Y-115823531D01*
X123381365Y-115823535D01*
X123198222Y-115966081D01*
X123198219Y-115966084D01*
X123041016Y-116136852D01*
X122914075Y-116331151D01*
X122820842Y-116543699D01*
X122763866Y-116768691D01*
X122763864Y-116768702D01*
X122744700Y-116999993D01*
X122744700Y-117000006D01*
X122763864Y-117231297D01*
X122763866Y-117231308D01*
X122820842Y-117456300D01*
X122914075Y-117668848D01*
X123041016Y-117863147D01*
X123041019Y-117863151D01*
X123041021Y-117863153D01*
X123198216Y-118033913D01*
X123198219Y-118033915D01*
X123198222Y-118033918D01*
X123381365Y-118176464D01*
X123381371Y-118176468D01*
X123381374Y-118176470D01*
X123585497Y-118286936D01*
X123699487Y-118326068D01*
X123805015Y-118362297D01*
X123805017Y-118362297D01*
X123805019Y-118362298D01*
X124033951Y-118400500D01*
X124033952Y-118400500D01*
X124266048Y-118400500D01*
X124266049Y-118400500D01*
X124494981Y-118362298D01*
X124714503Y-118286936D01*
X124918626Y-118176470D01*
X125101784Y-118033913D01*
X125258979Y-117863153D01*
X125385924Y-117668849D01*
X125479157Y-117456300D01*
X125488587Y-117419060D01*
X125524126Y-117358905D01*
X125586546Y-117327512D01*
X125608793Y-117325500D01*
X125983078Y-117325500D01*
X125988481Y-117325735D01*
X126028807Y-117329264D01*
X126067940Y-117318777D01*
X126073162Y-117317619D01*
X126113045Y-117310588D01*
X126113050Y-117310584D01*
X126118099Y-117308747D01*
X126134824Y-117301819D01*
X126139681Y-117299554D01*
X126139684Y-117299554D01*
X126172841Y-117276335D01*
X126177390Y-117273438D01*
X126212455Y-117253194D01*
X126238481Y-117222176D01*
X126242122Y-117218202D01*
X128398507Y-115061819D01*
X128459831Y-115028334D01*
X128486189Y-115025500D01*
X136883078Y-115025500D01*
X136888481Y-115025735D01*
X136928807Y-115029264D01*
X136967940Y-115018777D01*
X136973162Y-115017619D01*
X137013045Y-115010588D01*
X137013050Y-115010584D01*
X137018099Y-115008747D01*
X137034824Y-115001819D01*
X137039681Y-114999554D01*
X137039684Y-114999554D01*
X137072841Y-114976335D01*
X137077390Y-114973438D01*
X137112455Y-114953194D01*
X137138481Y-114922176D01*
X137142122Y-114918202D01*
X138518204Y-113542120D01*
X138522166Y-113538489D01*
X138553194Y-113512455D01*
X138573438Y-113477390D01*
X138576335Y-113472841D01*
X138599554Y-113439684D01*
X138599554Y-113439681D01*
X138601819Y-113434824D01*
X138608747Y-113418099D01*
X138610584Y-113413050D01*
X138610588Y-113413045D01*
X138617619Y-113373162D01*
X138618777Y-113367940D01*
X138629264Y-113328807D01*
X138625735Y-113288481D01*
X138625500Y-113283078D01*
X138625500Y-112386188D01*
X138645185Y-112319149D01*
X138661819Y-112298507D01*
X139248507Y-111711819D01*
X139309830Y-111678334D01*
X139336188Y-111675500D01*
X139564811Y-111675500D01*
X139631850Y-111695185D01*
X139677605Y-111747989D01*
X139687549Y-111817147D01*
X139658524Y-111880703D01*
X139652505Y-111887167D01*
X139599131Y-111940542D01*
X139481802Y-112057870D01*
X139477814Y-112061525D01*
X139446805Y-112087545D01*
X139426562Y-112122606D01*
X139423656Y-112127166D01*
X139400446Y-112160313D01*
X139398206Y-112165117D01*
X139391229Y-112181961D01*
X139389410Y-112186959D01*
X139382383Y-112226811D01*
X139381212Y-112232091D01*
X139370735Y-112271191D01*
X139374264Y-112311513D01*
X139374500Y-112316920D01*
X139374500Y-119183078D01*
X139374264Y-119188485D01*
X139370735Y-119228808D01*
X139381212Y-119267910D01*
X139382383Y-119273190D01*
X139389411Y-119313043D01*
X139391235Y-119318055D01*
X139398197Y-119334861D01*
X139400445Y-119339681D01*
X139400446Y-119339684D01*
X139411486Y-119355451D01*
X139423655Y-119372831D01*
X139426561Y-119377392D01*
X139446806Y-119412455D01*
X139477815Y-119438475D01*
X139481805Y-119442131D01*
X143098181Y-123058507D01*
X143131666Y-123119830D01*
X143134500Y-123146188D01*
X143134500Y-127056783D01*
X143114815Y-127123822D01*
X143062011Y-127169577D01*
X143060936Y-127170062D01*
X142997215Y-127198432D01*
X142997210Y-127198435D01*
X142840674Y-127312165D01*
X142840667Y-127312171D01*
X142711197Y-127455964D01*
X142614450Y-127623536D01*
X142614447Y-127623543D01*
X142554657Y-127807558D01*
X142554656Y-127807560D01*
X142534430Y-128000000D01*
X142554656Y-128192439D01*
X142554657Y-128192441D01*
X142614447Y-128376456D01*
X142614450Y-128376463D01*
X142711197Y-128544035D01*
X142840667Y-128687828D01*
X142840674Y-128687834D01*
X142997210Y-128801564D01*
X142997211Y-128801564D01*
X142997215Y-128801567D01*
X143107121Y-128850500D01*
X143173978Y-128880267D01*
X143173983Y-128880269D01*
X143363252Y-128920500D01*
X143556748Y-128920500D01*
X143746017Y-128880269D01*
X143922785Y-128801567D01*
X144079327Y-128687833D01*
X144086368Y-128680014D01*
X144170587Y-128586478D01*
X144208802Y-128544036D01*
X144299177Y-128387500D01*
X144349745Y-128339285D01*
X144406565Y-128325500D01*
X145053435Y-128325500D01*
X145120474Y-128345185D01*
X145160822Y-128387500D01*
X145251197Y-128544035D01*
X145380667Y-128687828D01*
X145380674Y-128687834D01*
X145537210Y-128801564D01*
X145537211Y-128801564D01*
X145537215Y-128801567D01*
X145647121Y-128850500D01*
X145713978Y-128880267D01*
X145713983Y-128880269D01*
X145903252Y-128920500D01*
X146096748Y-128920500D01*
X146286017Y-128880269D01*
X146462785Y-128801567D01*
X146619327Y-128687833D01*
X146626368Y-128680014D01*
X146710587Y-128586478D01*
X146748802Y-128544036D01*
X146845550Y-128376463D01*
X146905344Y-128192437D01*
X146925570Y-128000000D01*
X147614430Y-128000000D01*
X147634656Y-128192439D01*
X147634657Y-128192441D01*
X147694447Y-128376456D01*
X147694450Y-128376463D01*
X147791197Y-128544035D01*
X147920667Y-128687828D01*
X147920674Y-128687834D01*
X148077210Y-128801564D01*
X148077211Y-128801564D01*
X148077215Y-128801567D01*
X148187121Y-128850500D01*
X148253978Y-128880267D01*
X148253983Y-128880269D01*
X148443252Y-128920500D01*
X148636748Y-128920500D01*
X148826017Y-128880269D01*
X148840827Y-128873674D01*
X148910075Y-128864388D01*
X148973353Y-128894014D01*
X148978946Y-128899272D01*
X149210363Y-129130689D01*
X149214018Y-129134678D01*
X149240041Y-129165690D01*
X149240043Y-129165691D01*
X149240045Y-129165694D01*
X149240047Y-129165695D01*
X149240048Y-129165696D01*
X149275099Y-129185933D01*
X149279662Y-129188839D01*
X149312816Y-129212054D01*
X149312819Y-129212054D01*
X149317676Y-129214320D01*
X149334433Y-129221260D01*
X149339453Y-129223087D01*
X149339455Y-129223088D01*
X149375306Y-129229409D01*
X149379308Y-129230115D01*
X149384580Y-129231283D01*
X149423693Y-129241764D01*
X149464022Y-129238235D01*
X149469424Y-129238000D01*
X150236896Y-129238000D01*
X150303935Y-129257685D01*
X150349690Y-129310489D01*
X150353937Y-129321044D01*
X150370884Y-129369476D01*
X150449288Y-129475710D01*
X150449289Y-129475711D01*
X150555523Y-129554115D01*
X150555524Y-129554115D01*
X150555525Y-129554116D01*
X150680151Y-129597725D01*
X150680150Y-129597725D01*
X150709740Y-129600500D01*
X150709744Y-129600500D01*
X151290260Y-129600500D01*
X151319849Y-129597725D01*
X151368197Y-129580807D01*
X151444475Y-129554116D01*
X151550711Y-129475711D01*
X151629116Y-129369475D01*
X151672725Y-129244849D01*
X151675225Y-129218189D01*
X151675500Y-129215260D01*
X151675500Y-128609739D01*
X151672725Y-128580150D01*
X151633685Y-128468582D01*
X151629116Y-128455525D01*
X151615288Y-128436789D01*
X151550711Y-128349289D01*
X151550710Y-128349288D01*
X151444479Y-128270887D01*
X151444475Y-128270884D01*
X151444470Y-128270882D01*
X151439852Y-128268441D01*
X151389781Y-128219710D01*
X151374004Y-128151645D01*
X151397531Y-128085855D01*
X151452891Y-128043229D01*
X151458794Y-128041106D01*
X151551298Y-128010454D01*
X151551311Y-128010448D01*
X151698034Y-127919947D01*
X151698038Y-127919944D01*
X151819944Y-127798038D01*
X151819947Y-127798034D01*
X151910448Y-127651311D01*
X151910453Y-127651300D01*
X151964680Y-127487652D01*
X151974999Y-127386654D01*
X151975000Y-127386641D01*
X151975000Y-127337500D01*
X150025001Y-127337500D01*
X150025001Y-127386654D01*
X150035319Y-127487652D01*
X150089546Y-127651300D01*
X150089551Y-127651311D01*
X150180052Y-127798034D01*
X150180055Y-127798038D01*
X150301961Y-127919944D01*
X150301965Y-127919947D01*
X150448688Y-128010448D01*
X150448701Y-128010454D01*
X150541205Y-128041106D01*
X150598650Y-128080878D01*
X150625474Y-128145393D01*
X150613160Y-128214169D01*
X150565617Y-128265370D01*
X150560150Y-128268439D01*
X150555523Y-128270884D01*
X150449289Y-128349288D01*
X150449288Y-128349289D01*
X150370884Y-128455523D01*
X150353937Y-128503956D01*
X150313215Y-128560731D01*
X150248262Y-128586478D01*
X150236896Y-128587000D01*
X149638688Y-128587000D01*
X149571649Y-128567315D01*
X149551007Y-128550681D01*
X149437132Y-128436806D01*
X149403647Y-128375483D01*
X149406881Y-128310810D01*
X149445344Y-128192437D01*
X149465570Y-128000000D01*
X149445344Y-127807563D01*
X149385550Y-127623537D01*
X149288802Y-127455964D01*
X149260922Y-127425000D01*
X149159332Y-127312171D01*
X149159325Y-127312165D01*
X149002789Y-127198435D01*
X149002786Y-127198433D01*
X149002785Y-127198433D01*
X148937973Y-127169577D01*
X148826021Y-127119732D01*
X148826016Y-127119730D01*
X148636748Y-127079500D01*
X148443252Y-127079500D01*
X148253983Y-127119730D01*
X148253978Y-127119732D01*
X148077215Y-127198433D01*
X148077210Y-127198435D01*
X147920674Y-127312165D01*
X147920667Y-127312171D01*
X147791197Y-127455964D01*
X147694450Y-127623536D01*
X147694447Y-127623543D01*
X147634657Y-127807558D01*
X147634656Y-127807560D01*
X147614430Y-128000000D01*
X146925570Y-128000000D01*
X146905344Y-127807563D01*
X146845550Y-127623537D01*
X146748802Y-127455964D01*
X146720922Y-127425000D01*
X146619332Y-127312171D01*
X146619325Y-127312165D01*
X146462789Y-127198435D01*
X146462786Y-127198433D01*
X146462785Y-127198433D01*
X146397973Y-127169577D01*
X146286021Y-127119732D01*
X146286016Y-127119730D01*
X146096748Y-127079500D01*
X145903252Y-127079500D01*
X145713983Y-127119730D01*
X145713978Y-127119732D01*
X145537215Y-127198433D01*
X145537210Y-127198435D01*
X145380674Y-127312165D01*
X145380667Y-127312171D01*
X145251197Y-127455964D01*
X145160822Y-127612500D01*
X145110255Y-127660715D01*
X145053435Y-127674500D01*
X144406565Y-127674500D01*
X144339526Y-127654815D01*
X144299178Y-127612500D01*
X144208802Y-127455964D01*
X144079332Y-127312171D01*
X144079325Y-127312165D01*
X143922789Y-127198435D01*
X143922784Y-127198432D01*
X143859064Y-127170062D01*
X143805827Y-127124812D01*
X143788485Y-127067763D01*
X155145787Y-127067763D01*
X155175413Y-127337013D01*
X155175415Y-127337024D01*
X155237670Y-127575152D01*
X155243928Y-127599088D01*
X155349870Y-127848390D01*
X155448773Y-128010448D01*
X155490979Y-128079605D01*
X155490986Y-128079615D01*
X155664253Y-128287819D01*
X155664259Y-128287824D01*
X155762093Y-128375483D01*
X155865998Y-128468582D01*
X156091910Y-128618044D01*
X156337176Y-128733020D01*
X156337183Y-128733022D01*
X156337185Y-128733023D01*
X156596557Y-128811057D01*
X156596564Y-128811058D01*
X156596569Y-128811060D01*
X156864561Y-128850500D01*
X156864566Y-128850500D01*
X157067636Y-128850500D01*
X157119133Y-128846730D01*
X157270156Y-128835677D01*
X157423281Y-128801567D01*
X157534546Y-128776782D01*
X157534548Y-128776781D01*
X157534553Y-128776780D01*
X157787558Y-128680014D01*
X158023777Y-128547441D01*
X158238177Y-128381888D01*
X158426186Y-128186881D01*
X158583799Y-127966579D01*
X158680425Y-127778640D01*
X158707649Y-127725690D01*
X158707651Y-127725684D01*
X158707656Y-127725675D01*
X158795118Y-127469305D01*
X158844319Y-127202933D01*
X158854212Y-126932235D01*
X158824586Y-126662982D01*
X158756072Y-126400912D01*
X158650130Y-126151610D01*
X158509018Y-125920390D01*
X158419747Y-125813119D01*
X158335746Y-125712180D01*
X158335740Y-125712175D01*
X158134002Y-125531418D01*
X157908092Y-125381957D01*
X157908090Y-125381956D01*
X157662824Y-125266980D01*
X157662819Y-125266978D01*
X157662814Y-125266976D01*
X157403442Y-125188942D01*
X157403428Y-125188939D01*
X157287791Y-125171921D01*
X157135439Y-125149500D01*
X156932369Y-125149500D01*
X156932364Y-125149500D01*
X156729844Y-125164323D01*
X156729831Y-125164325D01*
X156465453Y-125223217D01*
X156465446Y-125223220D01*
X156212439Y-125319987D01*
X155976226Y-125452557D01*
X155761822Y-125618112D01*
X155573822Y-125813109D01*
X155573816Y-125813116D01*
X155416202Y-126033419D01*
X155416199Y-126033424D01*
X155292350Y-126274309D01*
X155292343Y-126274327D01*
X155204884Y-126530685D01*
X155204881Y-126530699D01*
X155155681Y-126797068D01*
X155155680Y-126797075D01*
X155145787Y-127067763D01*
X143788485Y-127067763D01*
X143785506Y-127057962D01*
X143785500Y-127056783D01*
X143785500Y-126837500D01*
X150025000Y-126837500D01*
X150750000Y-126837500D01*
X150750000Y-126100000D01*
X151250000Y-126100000D01*
X151250000Y-126837500D01*
X151974999Y-126837500D01*
X151974999Y-126788360D01*
X151974998Y-126788345D01*
X151964680Y-126687347D01*
X151910453Y-126523699D01*
X151910448Y-126523688D01*
X151819947Y-126376965D01*
X151819944Y-126376961D01*
X151698038Y-126255055D01*
X151698034Y-126255052D01*
X151551311Y-126164551D01*
X151551300Y-126164546D01*
X151387652Y-126110319D01*
X151286654Y-126100000D01*
X151250000Y-126100000D01*
X150750000Y-126100000D01*
X150713361Y-126100000D01*
X150713343Y-126100001D01*
X150612347Y-126110319D01*
X150448699Y-126164546D01*
X150448688Y-126164551D01*
X150301965Y-126255052D01*
X150301961Y-126255055D01*
X150180055Y-126376961D01*
X150180052Y-126376965D01*
X150089551Y-126523688D01*
X150089546Y-126523699D01*
X150035319Y-126687347D01*
X150025000Y-126788345D01*
X150025000Y-126837500D01*
X143785500Y-126837500D01*
X143785500Y-122976920D01*
X143785736Y-122971513D01*
X143789264Y-122931193D01*
X143778782Y-122892076D01*
X143777616Y-122886818D01*
X143770588Y-122846955D01*
X143770586Y-122846952D01*
X143770586Y-122846950D01*
X143768760Y-122841933D01*
X143761820Y-122825176D01*
X143759554Y-122820319D01*
X143759554Y-122820316D01*
X143736339Y-122787162D01*
X143733433Y-122782599D01*
X143713196Y-122747548D01*
X143713195Y-122747547D01*
X143713194Y-122747545D01*
X143682177Y-122721518D01*
X143678193Y-122717867D01*
X140061819Y-119101493D01*
X140028334Y-119040170D01*
X140025500Y-119013812D01*
X140025500Y-114850000D01*
X141375001Y-114850000D01*
X141375001Y-115749986D01*
X141385494Y-115852697D01*
X141440641Y-116019119D01*
X141440643Y-116019124D01*
X141532684Y-116168345D01*
X141656654Y-116292315D01*
X141805875Y-116384356D01*
X141805880Y-116384358D01*
X141972302Y-116439505D01*
X141972309Y-116439506D01*
X142075019Y-116449999D01*
X142287499Y-116449999D01*
X142287500Y-116449998D01*
X142287500Y-114850000D01*
X142787500Y-114850000D01*
X142787500Y-116449999D01*
X142999972Y-116449999D01*
X142999986Y-116449998D01*
X143102697Y-116439505D01*
X143269119Y-116384358D01*
X143269124Y-116384356D01*
X143418345Y-116292315D01*
X143542315Y-116168345D01*
X143634356Y-116019124D01*
X143634358Y-116019119D01*
X143689505Y-115852697D01*
X143689506Y-115852690D01*
X143699999Y-115749986D01*
X143700000Y-115749973D01*
X143700000Y-114850000D01*
X142787500Y-114850000D01*
X142287500Y-114850000D01*
X141375001Y-114850000D01*
X140025500Y-114850000D01*
X140025500Y-112486188D01*
X140045185Y-112419149D01*
X140061819Y-112398507D01*
X140098507Y-112361819D01*
X140159830Y-112328334D01*
X140186188Y-112325500D01*
X140337351Y-112325500D01*
X140404390Y-112345185D01*
X140407426Y-112347199D01*
X140414731Y-112352202D01*
X140414735Y-112352206D01*
X140517509Y-112397585D01*
X140542635Y-112400500D01*
X141845917Y-112400499D01*
X141912956Y-112420184D01*
X141958711Y-112472987D01*
X141962099Y-112481166D01*
X141994145Y-112567086D01*
X141994149Y-112567093D01*
X142002615Y-112578402D01*
X142027032Y-112643866D01*
X142012180Y-112712139D01*
X141962775Y-112761544D01*
X141942353Y-112770418D01*
X141805878Y-112815642D01*
X141805875Y-112815643D01*
X141656654Y-112907684D01*
X141532684Y-113031654D01*
X141440643Y-113180875D01*
X141440641Y-113180880D01*
X141385494Y-113347302D01*
X141385493Y-113347309D01*
X141375000Y-113450013D01*
X141375000Y-114350000D01*
X143699999Y-114350000D01*
X143699999Y-113450028D01*
X143699998Y-113450013D01*
X143689505Y-113347302D01*
X143634358Y-113180880D01*
X143634356Y-113180875D01*
X143542315Y-113031653D01*
X143537839Y-113025993D01*
X143540400Y-113023967D01*
X143513857Y-112975358D01*
X143518841Y-112905666D01*
X143560713Y-112849733D01*
X143626177Y-112825316D01*
X143635023Y-112825000D01*
X143976000Y-112825000D01*
X144043039Y-112844685D01*
X144088794Y-112897489D01*
X144100000Y-112948999D01*
X144100000Y-116500000D01*
X147100000Y-116500000D01*
X147117346Y-116482653D01*
X147119685Y-116474690D01*
X147172489Y-116428935D01*
X147241647Y-116418991D01*
X147289098Y-116436191D01*
X147348692Y-116472950D01*
X147348699Y-116472953D01*
X147512347Y-116527180D01*
X147613352Y-116537499D01*
X147650000Y-116537499D01*
X147650000Y-115750000D01*
X148150000Y-115750000D01*
X148150000Y-116537499D01*
X148186640Y-116537499D01*
X148186654Y-116537498D01*
X148287652Y-116527180D01*
X148451300Y-116472953D01*
X148451311Y-116472948D01*
X148598034Y-116382447D01*
X148598038Y-116382444D01*
X148719944Y-116260538D01*
X148719947Y-116260534D01*
X148810448Y-116113811D01*
X148810453Y-116113800D01*
X148864680Y-115950152D01*
X148874999Y-115849154D01*
X148875000Y-115849141D01*
X148875000Y-115750000D01*
X148150000Y-115750000D01*
X147650000Y-115750000D01*
X147650000Y-115374000D01*
X147669685Y-115306961D01*
X147722489Y-115261206D01*
X147774000Y-115250000D01*
X148874999Y-115250000D01*
X148874999Y-115150860D01*
X148874998Y-115150845D01*
X148864680Y-115049847D01*
X148835904Y-114963004D01*
X148833502Y-114893175D01*
X148869234Y-114833133D01*
X148931755Y-114801941D01*
X148953610Y-114800000D01*
X150248638Y-114800000D01*
X150315677Y-114819685D01*
X150336319Y-114836319D01*
X152463681Y-116963681D01*
X152497166Y-117025004D01*
X152500000Y-117051361D01*
X152500000Y-123200000D01*
X161375500Y-123200000D01*
X161442539Y-123219685D01*
X161488294Y-123272489D01*
X161499500Y-123324000D01*
X161499500Y-127000000D01*
X161482496Y-127389453D01*
X161482024Y-127394844D01*
X161431496Y-127778640D01*
X161430556Y-127783969D01*
X161346768Y-128161914D01*
X161345368Y-128167141D01*
X161228961Y-128536336D01*
X161227110Y-128541421D01*
X161078967Y-128899072D01*
X161076680Y-128903976D01*
X160897934Y-129247342D01*
X160895228Y-129252028D01*
X160687227Y-129578526D01*
X160684123Y-129582959D01*
X160448463Y-129890077D01*
X160444984Y-129894222D01*
X160183456Y-130179630D01*
X160179630Y-130183456D01*
X159894222Y-130444984D01*
X159890077Y-130448463D01*
X159582959Y-130684123D01*
X159578526Y-130687227D01*
X159252028Y-130895228D01*
X159247342Y-130897934D01*
X158903976Y-131076680D01*
X158899072Y-131078967D01*
X158541421Y-131227110D01*
X158536336Y-131228961D01*
X158167141Y-131345368D01*
X158161914Y-131346768D01*
X157783969Y-131430556D01*
X157778640Y-131431496D01*
X157394844Y-131482024D01*
X157389453Y-131482496D01*
X157000000Y-131499500D01*
X124000000Y-131499500D01*
X123610546Y-131482496D01*
X123605155Y-131482024D01*
X123221359Y-131431496D01*
X123216030Y-131430556D01*
X122838085Y-131346768D01*
X122832865Y-131345370D01*
X122661193Y-131291242D01*
X122463663Y-131228961D01*
X122458578Y-131227110D01*
X122213889Y-131125757D01*
X122100921Y-131078964D01*
X122096031Y-131076684D01*
X121752657Y-130897934D01*
X121747971Y-130895228D01*
X121421473Y-130687227D01*
X121417040Y-130684123D01*
X121109922Y-130448463D01*
X121105777Y-130444984D01*
X120820369Y-130183456D01*
X120816543Y-130179630D01*
X120555015Y-129894222D01*
X120551536Y-129890077D01*
X120394347Y-129685225D01*
X120315872Y-129582954D01*
X120312772Y-129578526D01*
X120104771Y-129252028D01*
X120102065Y-129247342D01*
X119923310Y-128903958D01*
X119921039Y-128899088D01*
X119772889Y-128541421D01*
X119771038Y-128536336D01*
X119760829Y-128503956D01*
X119654625Y-128167119D01*
X119653231Y-128161914D01*
X119650954Y-128151645D01*
X119569442Y-127783967D01*
X119568506Y-127778659D01*
X119517973Y-127394826D01*
X119517504Y-127389474D01*
X119503458Y-127067763D01*
X122145787Y-127067763D01*
X122175413Y-127337013D01*
X122175415Y-127337024D01*
X122237670Y-127575152D01*
X122243928Y-127599088D01*
X122349870Y-127848390D01*
X122448773Y-128010448D01*
X122490979Y-128079605D01*
X122490986Y-128079615D01*
X122664253Y-128287819D01*
X122664259Y-128287824D01*
X122762093Y-128375483D01*
X122865998Y-128468582D01*
X123091910Y-128618044D01*
X123337176Y-128733020D01*
X123337183Y-128733022D01*
X123337185Y-128733023D01*
X123596557Y-128811057D01*
X123596564Y-128811058D01*
X123596569Y-128811060D01*
X123864561Y-128850500D01*
X123864566Y-128850500D01*
X124067636Y-128850500D01*
X124119133Y-128846730D01*
X124270156Y-128835677D01*
X124423281Y-128801567D01*
X124534546Y-128776782D01*
X124534548Y-128776781D01*
X124534553Y-128776780D01*
X124787558Y-128680014D01*
X125023777Y-128547441D01*
X125238177Y-128381888D01*
X125426186Y-128186881D01*
X125559888Y-128000000D01*
X129534430Y-128000000D01*
X129554656Y-128192439D01*
X129554657Y-128192441D01*
X129614447Y-128376456D01*
X129614450Y-128376463D01*
X129711197Y-128544035D01*
X129840667Y-128687828D01*
X129840674Y-128687834D01*
X129997210Y-128801564D01*
X129997211Y-128801564D01*
X129997215Y-128801567D01*
X130107121Y-128850500D01*
X130173978Y-128880267D01*
X130173983Y-128880269D01*
X130363252Y-128920500D01*
X130556748Y-128920500D01*
X130746017Y-128880269D01*
X130922785Y-128801567D01*
X131079327Y-128687833D01*
X131086368Y-128680014D01*
X131170587Y-128586478D01*
X131208802Y-128544036D01*
X131299177Y-128387500D01*
X131349745Y-128339285D01*
X131406565Y-128325500D01*
X132053435Y-128325500D01*
X132120474Y-128345185D01*
X132160822Y-128387500D01*
X132251197Y-128544035D01*
X132380667Y-128687828D01*
X132380674Y-128687834D01*
X132537210Y-128801564D01*
X132537211Y-128801564D01*
X132537215Y-128801567D01*
X132647121Y-128850500D01*
X132713978Y-128880267D01*
X132713983Y-128880269D01*
X132903252Y-128920500D01*
X133096748Y-128920500D01*
X133286017Y-128880269D01*
X133462785Y-128801567D01*
X133619327Y-128687833D01*
X133626368Y-128680014D01*
X133710587Y-128586478D01*
X133748802Y-128544036D01*
X133845550Y-128376463D01*
X133905344Y-128192437D01*
X133925570Y-128000000D01*
X134614430Y-128000000D01*
X134634656Y-128192439D01*
X134634657Y-128192441D01*
X134694447Y-128376456D01*
X134694450Y-128376463D01*
X134791197Y-128544035D01*
X134920667Y-128687828D01*
X134920674Y-128687834D01*
X135077210Y-128801564D01*
X135077211Y-128801564D01*
X135077215Y-128801567D01*
X135187121Y-128850500D01*
X135253978Y-128880267D01*
X135253983Y-128880269D01*
X135443252Y-128920500D01*
X135636748Y-128920500D01*
X135826017Y-128880269D01*
X135840827Y-128873674D01*
X135910075Y-128864388D01*
X135973353Y-128894014D01*
X135978946Y-128899272D01*
X136297863Y-129218189D01*
X136301518Y-129222178D01*
X136327541Y-129253190D01*
X136327543Y-129253191D01*
X136327545Y-129253194D01*
X136327547Y-129253195D01*
X136327548Y-129253196D01*
X136362599Y-129273433D01*
X136367162Y-129276339D01*
X136400316Y-129299554D01*
X136400319Y-129299554D01*
X136405176Y-129301820D01*
X136421933Y-129308760D01*
X136426953Y-129310587D01*
X136426955Y-129310588D01*
X136462806Y-129316909D01*
X136466808Y-129317615D01*
X136472080Y-129318783D01*
X136511193Y-129329264D01*
X136551522Y-129325735D01*
X136556924Y-129325500D01*
X138236896Y-129325500D01*
X138303935Y-129345185D01*
X138349690Y-129397989D01*
X138353937Y-129408544D01*
X138370884Y-129456976D01*
X138449288Y-129563210D01*
X138449289Y-129563211D01*
X138555523Y-129641615D01*
X138555524Y-129641615D01*
X138555525Y-129641616D01*
X138680151Y-129685225D01*
X138680150Y-129685225D01*
X138709740Y-129688000D01*
X138709744Y-129688000D01*
X139290260Y-129688000D01*
X139319849Y-129685225D01*
X139444475Y-129641616D01*
X139550711Y-129563211D01*
X139629116Y-129456975D01*
X139672725Y-129332349D01*
X139674937Y-129308760D01*
X139675500Y-129302760D01*
X139675500Y-128697239D01*
X139672725Y-128667650D01*
X139638847Y-128570834D01*
X139629116Y-128543025D01*
X139627932Y-128541421D01*
X139550711Y-128436789D01*
X139550710Y-128436788D01*
X139444479Y-128358387D01*
X139444475Y-128358384D01*
X139444470Y-128358382D01*
X139439852Y-128355941D01*
X139389781Y-128307210D01*
X139374004Y-128239145D01*
X139397531Y-128173355D01*
X139452891Y-128130729D01*
X139458794Y-128128606D01*
X139551298Y-128097954D01*
X139551311Y-128097948D01*
X139698034Y-128007447D01*
X139698038Y-128007444D01*
X139819944Y-127885538D01*
X139819947Y-127885534D01*
X139910448Y-127738811D01*
X139910453Y-127738800D01*
X139964680Y-127575152D01*
X139974999Y-127474154D01*
X139975000Y-127474141D01*
X139975000Y-127425000D01*
X138025001Y-127425000D01*
X138025001Y-127474154D01*
X138035319Y-127575152D01*
X138089546Y-127738800D01*
X138089551Y-127738811D01*
X138180052Y-127885534D01*
X138180055Y-127885538D01*
X138301961Y-128007444D01*
X138301965Y-128007447D01*
X138448688Y-128097948D01*
X138448701Y-128097954D01*
X138541205Y-128128606D01*
X138598650Y-128168378D01*
X138625474Y-128232893D01*
X138613160Y-128301669D01*
X138565617Y-128352870D01*
X138560150Y-128355939D01*
X138555523Y-128358384D01*
X138449289Y-128436788D01*
X138449288Y-128436789D01*
X138370884Y-128543023D01*
X138353937Y-128591456D01*
X138313215Y-128648231D01*
X138248262Y-128673978D01*
X138236896Y-128674500D01*
X136726188Y-128674500D01*
X136659149Y-128654815D01*
X136638507Y-128638181D01*
X136437132Y-128436806D01*
X136403647Y-128375483D01*
X136406881Y-128310810D01*
X136445344Y-128192437D01*
X136465570Y-128000000D01*
X136445344Y-127807563D01*
X136385550Y-127623537D01*
X136288802Y-127455964D01*
X136260922Y-127425000D01*
X136159332Y-127312171D01*
X136159325Y-127312165D01*
X136002789Y-127198435D01*
X136002786Y-127198433D01*
X136002785Y-127198433D01*
X135937973Y-127169577D01*
X135826021Y-127119732D01*
X135826016Y-127119730D01*
X135636748Y-127079500D01*
X135443252Y-127079500D01*
X135253983Y-127119730D01*
X135253978Y-127119732D01*
X135077215Y-127198433D01*
X135077210Y-127198435D01*
X134920674Y-127312165D01*
X134920667Y-127312171D01*
X134791197Y-127455964D01*
X134694450Y-127623536D01*
X134694447Y-127623543D01*
X134634657Y-127807558D01*
X134634656Y-127807560D01*
X134614430Y-128000000D01*
X133925570Y-128000000D01*
X133905344Y-127807563D01*
X133845550Y-127623537D01*
X133748802Y-127455964D01*
X133720922Y-127425000D01*
X133619332Y-127312171D01*
X133619325Y-127312165D01*
X133462789Y-127198435D01*
X133462786Y-127198433D01*
X133462785Y-127198433D01*
X133397973Y-127169577D01*
X133286021Y-127119732D01*
X133286016Y-127119730D01*
X133096748Y-127079500D01*
X132903252Y-127079500D01*
X132713983Y-127119730D01*
X132713978Y-127119732D01*
X132537215Y-127198433D01*
X132537210Y-127198435D01*
X132380674Y-127312165D01*
X132380667Y-127312171D01*
X132251197Y-127455964D01*
X132160822Y-127612500D01*
X132110255Y-127660715D01*
X132053435Y-127674500D01*
X131406565Y-127674500D01*
X131339526Y-127654815D01*
X131299178Y-127612500D01*
X131208802Y-127455964D01*
X131079332Y-127312171D01*
X131079325Y-127312165D01*
X130922789Y-127198435D01*
X130922786Y-127198433D01*
X130922785Y-127198433D01*
X130857973Y-127169577D01*
X130746021Y-127119732D01*
X130746016Y-127119730D01*
X130556748Y-127079500D01*
X130363252Y-127079500D01*
X130173983Y-127119730D01*
X130173978Y-127119732D01*
X129997215Y-127198433D01*
X129997210Y-127198435D01*
X129840674Y-127312165D01*
X129840667Y-127312171D01*
X129711197Y-127455964D01*
X129614450Y-127623536D01*
X129614447Y-127623543D01*
X129554657Y-127807558D01*
X129554656Y-127807560D01*
X129534430Y-128000000D01*
X125559888Y-128000000D01*
X125583799Y-127966579D01*
X125680425Y-127778640D01*
X125707649Y-127725690D01*
X125707651Y-127725684D01*
X125707656Y-127725675D01*
X125795118Y-127469305D01*
X125844319Y-127202933D01*
X125854212Y-126932235D01*
X125853416Y-126925000D01*
X138025000Y-126925000D01*
X138750000Y-126925000D01*
X138750000Y-126187500D01*
X139250000Y-126187500D01*
X139250000Y-126925000D01*
X139974999Y-126925000D01*
X139974999Y-126875860D01*
X139974998Y-126875845D01*
X139964680Y-126774847D01*
X139910453Y-126611199D01*
X139910448Y-126611188D01*
X139819947Y-126464465D01*
X139819944Y-126464461D01*
X139698038Y-126342555D01*
X139698034Y-126342552D01*
X139551311Y-126252051D01*
X139551300Y-126252046D01*
X139387652Y-126197819D01*
X139286654Y-126187500D01*
X139250000Y-126187500D01*
X138750000Y-126187500D01*
X138713361Y-126187500D01*
X138713343Y-126187501D01*
X138612347Y-126197819D01*
X138448699Y-126252046D01*
X138448688Y-126252051D01*
X138301965Y-126342552D01*
X138301961Y-126342555D01*
X138180055Y-126464461D01*
X138180052Y-126464465D01*
X138089551Y-126611188D01*
X138089546Y-126611199D01*
X138035319Y-126774847D01*
X138025000Y-126875845D01*
X138025000Y-126925000D01*
X125853416Y-126925000D01*
X125824586Y-126662982D01*
X125756072Y-126400912D01*
X125650130Y-126151610D01*
X125509018Y-125920390D01*
X125419747Y-125813119D01*
X125335746Y-125712180D01*
X125335740Y-125712175D01*
X125134002Y-125531418D01*
X124908092Y-125381957D01*
X124908090Y-125381956D01*
X124662824Y-125266980D01*
X124662819Y-125266978D01*
X124662814Y-125266976D01*
X124403442Y-125188942D01*
X124403428Y-125188939D01*
X124287791Y-125171921D01*
X124135439Y-125149500D01*
X123932369Y-125149500D01*
X123932364Y-125149500D01*
X123729844Y-125164323D01*
X123729831Y-125164325D01*
X123465453Y-125223217D01*
X123465446Y-125223220D01*
X123212439Y-125319987D01*
X122976226Y-125452557D01*
X122761822Y-125618112D01*
X122573822Y-125813109D01*
X122573816Y-125813116D01*
X122416202Y-126033419D01*
X122416199Y-126033424D01*
X122292350Y-126274309D01*
X122292343Y-126274327D01*
X122204884Y-126530685D01*
X122204881Y-126530699D01*
X122155681Y-126797068D01*
X122155680Y-126797075D01*
X122145787Y-127067763D01*
X119503458Y-127067763D01*
X119500500Y-127000000D01*
X119500500Y-126934108D01*
X119500500Y-120500004D01*
X122445233Y-120500004D01*
X122464273Y-120754079D01*
X122520968Y-121002477D01*
X122520973Y-121002494D01*
X122614058Y-121239671D01*
X122614057Y-121239671D01*
X122741457Y-121460332D01*
X122783452Y-121512993D01*
X123468590Y-120827855D01*
X123529913Y-120794370D01*
X123599604Y-120799354D01*
X123654645Y-120840049D01*
X123658099Y-120844549D01*
X123722075Y-120927925D01*
X123809948Y-120995353D01*
X123851150Y-121051781D01*
X123855305Y-121121527D01*
X123822142Y-121181409D01*
X123136813Y-121866737D01*
X123297623Y-121976375D01*
X123297624Y-121976376D01*
X123527176Y-122086921D01*
X123527174Y-122086921D01*
X123770652Y-122162024D01*
X123770658Y-122162026D01*
X124022595Y-122199999D01*
X124022604Y-122200000D01*
X124277396Y-122200000D01*
X124277404Y-122199999D01*
X124529341Y-122162026D01*
X124529347Y-122162024D01*
X124772824Y-122086921D01*
X125002381Y-121976373D01*
X125158763Y-121869752D01*
X133949500Y-121869752D01*
X133961131Y-121928229D01*
X133961132Y-121928230D01*
X134005447Y-121994552D01*
X134071769Y-122038867D01*
X134071770Y-122038868D01*
X134130247Y-122050499D01*
X134130250Y-122050500D01*
X134130252Y-122050500D01*
X135869750Y-122050500D01*
X135869751Y-122050499D01*
X135884568Y-122047552D01*
X135928229Y-122038868D01*
X135928229Y-122038867D01*
X135928231Y-122038867D01*
X135994552Y-121994552D01*
X136038867Y-121928231D01*
X136038867Y-121928229D01*
X136038868Y-121928229D01*
X136050499Y-121869752D01*
X136050500Y-121869750D01*
X136050500Y-120130249D01*
X136050499Y-120130247D01*
X136038868Y-120071770D01*
X136038867Y-120071769D01*
X135994552Y-120005447D01*
X135928230Y-119961132D01*
X135928229Y-119961131D01*
X135869752Y-119949500D01*
X135869748Y-119949500D01*
X134130252Y-119949500D01*
X134130247Y-119949500D01*
X134071770Y-119961131D01*
X134071769Y-119961132D01*
X134005447Y-120005447D01*
X133961132Y-120071769D01*
X133961131Y-120071770D01*
X133949500Y-120130247D01*
X133949500Y-121869752D01*
X125158763Y-121869752D01*
X125163185Y-121866737D01*
X124477856Y-121181409D01*
X124444371Y-121120086D01*
X124449355Y-121050395D01*
X124490049Y-120995353D01*
X124577925Y-120927925D01*
X124645354Y-120840048D01*
X124701779Y-120798848D01*
X124771525Y-120794693D01*
X124831409Y-120827856D01*
X125516545Y-121512993D01*
X125558545Y-121460327D01*
X125685941Y-121239671D01*
X125779026Y-121002494D01*
X125779031Y-121002477D01*
X125835726Y-120754079D01*
X125854767Y-120500004D01*
X125854767Y-120499995D01*
X125835726Y-120245920D01*
X125779031Y-119997522D01*
X125779026Y-119997505D01*
X125685941Y-119760328D01*
X125685942Y-119760328D01*
X125558544Y-119539671D01*
X125516545Y-119487005D01*
X124831409Y-120172142D01*
X124770086Y-120205627D01*
X124700394Y-120200643D01*
X124645353Y-120159948D01*
X124577925Y-120072075D01*
X124577526Y-120071769D01*
X124490049Y-120004645D01*
X124448847Y-119948219D01*
X124444692Y-119878473D01*
X124477855Y-119818590D01*
X125163185Y-119133261D01*
X125002377Y-119023624D01*
X125002376Y-119023623D01*
X124772823Y-118913078D01*
X124772825Y-118913078D01*
X124529347Y-118837975D01*
X124529341Y-118837973D01*
X124277404Y-118800000D01*
X124022595Y-118800000D01*
X123770658Y-118837973D01*
X123770652Y-118837975D01*
X123527175Y-118913078D01*
X123297624Y-119023623D01*
X123297616Y-119023628D01*
X123136813Y-119133261D01*
X123822143Y-119818590D01*
X123855628Y-119879913D01*
X123850644Y-119949604D01*
X123809949Y-120004646D01*
X123722075Y-120072074D01*
X123722074Y-120072075D01*
X123654646Y-120159949D01*
X123598218Y-120201151D01*
X123528472Y-120205306D01*
X123468590Y-120172143D01*
X122783453Y-119487006D01*
X122741455Y-119539670D01*
X122614058Y-119760328D01*
X122520973Y-119997505D01*
X122520968Y-119997522D01*
X122464273Y-120245920D01*
X122445233Y-120499995D01*
X122445233Y-120500004D01*
X119500500Y-120500004D01*
X119500500Y-99500004D01*
X122445233Y-99500004D01*
X122464273Y-99754079D01*
X122520968Y-100002477D01*
X122520973Y-100002494D01*
X122614058Y-100239671D01*
X122614057Y-100239671D01*
X122741457Y-100460332D01*
X122783452Y-100512993D01*
X123468590Y-99827855D01*
X123529913Y-99794370D01*
X123599604Y-99799354D01*
X123654645Y-99840049D01*
X123722074Y-99927924D01*
X123722075Y-99927925D01*
X123809948Y-99995353D01*
X123851150Y-100051781D01*
X123855305Y-100121527D01*
X123822142Y-100181409D01*
X123136813Y-100866737D01*
X123297623Y-100976375D01*
X123297624Y-100976376D01*
X123527176Y-101086921D01*
X123527174Y-101086921D01*
X123770652Y-101162024D01*
X123770658Y-101162026D01*
X124022595Y-101199999D01*
X124022604Y-101200000D01*
X124277396Y-101200000D01*
X124277404Y-101199999D01*
X124529341Y-101162026D01*
X124529347Y-101162024D01*
X124772824Y-101086921D01*
X125002381Y-100976373D01*
X125163185Y-100866737D01*
X124477856Y-100181409D01*
X124444371Y-100120086D01*
X124449355Y-100050395D01*
X124490049Y-99995353D01*
X124577925Y-99927925D01*
X124645354Y-99840048D01*
X124701779Y-99798848D01*
X124771525Y-99794693D01*
X124831409Y-99827856D01*
X125516545Y-100512993D01*
X125558545Y-100460327D01*
X125685941Y-100239671D01*
X125779026Y-100002494D01*
X125779031Y-100002477D01*
X125835726Y-99754079D01*
X125854767Y-99500004D01*
X125854767Y-99499995D01*
X125835726Y-99245920D01*
X125779031Y-98997522D01*
X125779026Y-98997505D01*
X125685941Y-98760328D01*
X125685942Y-98760328D01*
X125558544Y-98539671D01*
X125516545Y-98487005D01*
X124831409Y-99172142D01*
X124770086Y-99205627D01*
X124700394Y-99200643D01*
X124645353Y-99159948D01*
X124577925Y-99072075D01*
X124563662Y-99061131D01*
X124490049Y-99004645D01*
X124448847Y-98948219D01*
X124444692Y-98878473D01*
X124477855Y-98818590D01*
X125163185Y-98133261D01*
X125002377Y-98023624D01*
X125002376Y-98023623D01*
X124772823Y-97913078D01*
X124772825Y-97913078D01*
X124529347Y-97837975D01*
X124529341Y-97837973D01*
X124277404Y-97800000D01*
X124022595Y-97800000D01*
X123770658Y-97837973D01*
X123770652Y-97837975D01*
X123527175Y-97913078D01*
X123297624Y-98023623D01*
X123297616Y-98023628D01*
X123136813Y-98133261D01*
X123822143Y-98818590D01*
X123855628Y-98879913D01*
X123850644Y-98949604D01*
X123809949Y-99004646D01*
X123722075Y-99072074D01*
X123722074Y-99072075D01*
X123654646Y-99159949D01*
X123598218Y-99201151D01*
X123528472Y-99205306D01*
X123468590Y-99172143D01*
X122783453Y-98487006D01*
X122741455Y-98539670D01*
X122614058Y-98760328D01*
X122520973Y-98997505D01*
X122520968Y-98997522D01*
X122464273Y-99245920D01*
X122445233Y-99499995D01*
X122445233Y-99500004D01*
X119500500Y-99500004D01*
X119500500Y-97219752D01*
X122749500Y-97219752D01*
X122761131Y-97278229D01*
X122761132Y-97278230D01*
X122805447Y-97344552D01*
X122871769Y-97388867D01*
X122871770Y-97388868D01*
X122930247Y-97400499D01*
X122930250Y-97400500D01*
X122930252Y-97400500D01*
X125369750Y-97400500D01*
X125369751Y-97400499D01*
X125384568Y-97397552D01*
X125428229Y-97388868D01*
X125428229Y-97388867D01*
X125428231Y-97388867D01*
X125494552Y-97344552D01*
X125538867Y-97278231D01*
X125538867Y-97278229D01*
X125538868Y-97278229D01*
X125550499Y-97219752D01*
X125550500Y-97219750D01*
X125550500Y-96869752D01*
X133949500Y-96869752D01*
X133961131Y-96928229D01*
X133961132Y-96928230D01*
X134005447Y-96994552D01*
X134071769Y-97038867D01*
X134071770Y-97038868D01*
X134130247Y-97050499D01*
X134130250Y-97050500D01*
X134130252Y-97050500D01*
X135869750Y-97050500D01*
X135869751Y-97050499D01*
X135884568Y-97047552D01*
X135928229Y-97038868D01*
X135928229Y-97038867D01*
X135928231Y-97038867D01*
X135994552Y-96994552D01*
X136038867Y-96928231D01*
X136038867Y-96928229D01*
X136038868Y-96928229D01*
X136050499Y-96869752D01*
X136050500Y-96869750D01*
X136050500Y-95130249D01*
X136050499Y-95130247D01*
X136038868Y-95071770D01*
X136038867Y-95071769D01*
X135994552Y-95005447D01*
X135928230Y-94961132D01*
X135928229Y-94961131D01*
X135869752Y-94949500D01*
X135869748Y-94949500D01*
X135610187Y-94949500D01*
X135543148Y-94929815D01*
X135497393Y-94877011D01*
X135487449Y-94807853D01*
X135516474Y-94744297D01*
X135522506Y-94737819D01*
X135672780Y-94587545D01*
X136143215Y-94117109D01*
X136147166Y-94113489D01*
X136178194Y-94087455D01*
X136198438Y-94052390D01*
X136201335Y-94047841D01*
X136224554Y-94014684D01*
X136224554Y-94014681D01*
X136226819Y-94009824D01*
X136233747Y-93993099D01*
X136235584Y-93988050D01*
X136235588Y-93988045D01*
X136242619Y-93948162D01*
X136243777Y-93942940D01*
X136254264Y-93903807D01*
X136251628Y-93873681D01*
X136265394Y-93805183D01*
X136314008Y-93754999D01*
X136334191Y-93745836D01*
X136381975Y-93729116D01*
X136488211Y-93650711D01*
X136566616Y-93544475D01*
X136610225Y-93419849D01*
X136613000Y-93390256D01*
X136613000Y-92809744D01*
X136611093Y-92789412D01*
X136610225Y-92780150D01*
X136566615Y-92655523D01*
X136488211Y-92549289D01*
X136488210Y-92549288D01*
X136381976Y-92470884D01*
X136257348Y-92427274D01*
X136257349Y-92427274D01*
X136227760Y-92424500D01*
X136227756Y-92424500D01*
X135622244Y-92424500D01*
X135622240Y-92424500D01*
X135592650Y-92427274D01*
X135468023Y-92470884D01*
X135361789Y-92549288D01*
X135361788Y-92549289D01*
X135283384Y-92655523D01*
X135239774Y-92780150D01*
X135237000Y-92809739D01*
X135237000Y-93390260D01*
X135239774Y-93419849D01*
X135283384Y-93544476D01*
X135344158Y-93626821D01*
X135361789Y-93650711D01*
X135434099Y-93704077D01*
X135476348Y-93759722D01*
X135481807Y-93829379D01*
X135448740Y-93890928D01*
X135448145Y-93891527D01*
X134781803Y-94557870D01*
X134777814Y-94561525D01*
X134746805Y-94587545D01*
X134726562Y-94622606D01*
X134723656Y-94627166D01*
X134700446Y-94660313D01*
X134698206Y-94665117D01*
X134691229Y-94681961D01*
X134689410Y-94686959D01*
X134682383Y-94726811D01*
X134681212Y-94732091D01*
X134670735Y-94771191D01*
X134674264Y-94811513D01*
X134674500Y-94816920D01*
X134674500Y-94825500D01*
X134654815Y-94892539D01*
X134602011Y-94938294D01*
X134550500Y-94949500D01*
X134130247Y-94949500D01*
X134071770Y-94961131D01*
X134071769Y-94961132D01*
X134005447Y-95005447D01*
X133961132Y-95071769D01*
X133961131Y-95071770D01*
X133949500Y-95130247D01*
X133949500Y-96869752D01*
X125550500Y-96869752D01*
X125550500Y-96449500D01*
X125570185Y-96382461D01*
X125622989Y-96336706D01*
X125674500Y-96325500D01*
X129383078Y-96325500D01*
X129388481Y-96325735D01*
X129428807Y-96329264D01*
X129467940Y-96318777D01*
X129473162Y-96317619D01*
X129513045Y-96310588D01*
X129513050Y-96310584D01*
X129518099Y-96308747D01*
X129534824Y-96301819D01*
X129539681Y-96299554D01*
X129539684Y-96299554D01*
X129572841Y-96276335D01*
X129577390Y-96273438D01*
X129612455Y-96253194D01*
X129638481Y-96222176D01*
X129642122Y-96218202D01*
X132398507Y-93461819D01*
X132459831Y-93428334D01*
X132486189Y-93425500D01*
X133328770Y-93425500D01*
X133395809Y-93445185D01*
X133441564Y-93497989D01*
X133445811Y-93508544D01*
X133458384Y-93544476D01*
X133536788Y-93650710D01*
X133536789Y-93650711D01*
X133643023Y-93729115D01*
X133643024Y-93729115D01*
X133643025Y-93729116D01*
X133767651Y-93772725D01*
X133767650Y-93772725D01*
X133797240Y-93775500D01*
X133797244Y-93775500D01*
X134402760Y-93775500D01*
X134432349Y-93772725D01*
X134556975Y-93729116D01*
X134663211Y-93650711D01*
X134741616Y-93544475D01*
X134785225Y-93419849D01*
X134788000Y-93390256D01*
X134788000Y-92809744D01*
X134786093Y-92789412D01*
X134785225Y-92780150D01*
X134741615Y-92655523D01*
X134663211Y-92549289D01*
X134663210Y-92549288D01*
X134556976Y-92470884D01*
X134432348Y-92427274D01*
X134432349Y-92427274D01*
X134402760Y-92424500D01*
X134402756Y-92424500D01*
X133797244Y-92424500D01*
X133797240Y-92424500D01*
X133767650Y-92427274D01*
X133643023Y-92470884D01*
X133536789Y-92549288D01*
X133536788Y-92549289D01*
X133458384Y-92655523D01*
X133445811Y-92691456D01*
X133405089Y-92748231D01*
X133340136Y-92773978D01*
X133328770Y-92774500D01*
X132316911Y-92774500D01*
X132311507Y-92774264D01*
X132306176Y-92773797D01*
X132271192Y-92770736D01*
X132232099Y-92781211D01*
X132226819Y-92782382D01*
X132186954Y-92789412D01*
X132181962Y-92791229D01*
X132165117Y-92798206D01*
X132160313Y-92800446D01*
X132127163Y-92823658D01*
X132122602Y-92826564D01*
X132087548Y-92846804D01*
X132087545Y-92846806D01*
X132087543Y-92846807D01*
X132087542Y-92846809D01*
X132061523Y-92877815D01*
X132057868Y-92881803D01*
X129978541Y-94961133D01*
X129301493Y-95638181D01*
X129240170Y-95671666D01*
X129213812Y-95674500D01*
X125674500Y-95674500D01*
X125607461Y-95654815D01*
X125561706Y-95602011D01*
X125550500Y-95550500D01*
X125550500Y-94780249D01*
X125550499Y-94780247D01*
X125538868Y-94721770D01*
X125538867Y-94721769D01*
X125494552Y-94655447D01*
X125428230Y-94611132D01*
X125428229Y-94611131D01*
X125369752Y-94599500D01*
X125369748Y-94599500D01*
X122930252Y-94599500D01*
X122930247Y-94599500D01*
X122871770Y-94611131D01*
X122871769Y-94611132D01*
X122805447Y-94655447D01*
X122761132Y-94721769D01*
X122761131Y-94721770D01*
X122749500Y-94780247D01*
X122749500Y-97219752D01*
X119500500Y-97219752D01*
X119500500Y-89067763D01*
X122145787Y-89067763D01*
X122175413Y-89337013D01*
X122175415Y-89337024D01*
X122243926Y-89599082D01*
X122243928Y-89599088D01*
X122349870Y-89848390D01*
X122421998Y-89966575D01*
X122490979Y-90079605D01*
X122490986Y-90079615D01*
X122664253Y-90287819D01*
X122664259Y-90287824D01*
X122865998Y-90468582D01*
X123091910Y-90618044D01*
X123337176Y-90733020D01*
X123337183Y-90733022D01*
X123337185Y-90733023D01*
X123596557Y-90811057D01*
X123596564Y-90811058D01*
X123596569Y-90811060D01*
X123864561Y-90850500D01*
X123864566Y-90850500D01*
X124067636Y-90850500D01*
X124119133Y-90846730D01*
X124270156Y-90835677D01*
X124382758Y-90810593D01*
X124534546Y-90776782D01*
X124534548Y-90776781D01*
X124534553Y-90776780D01*
X124787558Y-90680014D01*
X125023777Y-90547441D01*
X125238177Y-90381888D01*
X125426186Y-90186881D01*
X125583799Y-89966579D01*
X125657787Y-89822669D01*
X125707649Y-89725690D01*
X125707651Y-89725684D01*
X125707656Y-89725675D01*
X125795118Y-89469305D01*
X125844319Y-89202933D01*
X125849259Y-89067763D01*
X155145787Y-89067763D01*
X155175413Y-89337013D01*
X155175415Y-89337024D01*
X155243926Y-89599082D01*
X155243928Y-89599088D01*
X155349870Y-89848390D01*
X155421998Y-89966575D01*
X155490979Y-90079605D01*
X155490986Y-90079615D01*
X155664253Y-90287819D01*
X155664259Y-90287824D01*
X155865998Y-90468582D01*
X156091910Y-90618044D01*
X156337176Y-90733020D01*
X156337183Y-90733022D01*
X156337185Y-90733023D01*
X156596557Y-90811057D01*
X156596564Y-90811058D01*
X156596569Y-90811060D01*
X156864561Y-90850500D01*
X156864566Y-90850500D01*
X157067636Y-90850500D01*
X157119133Y-90846730D01*
X157270156Y-90835677D01*
X157382758Y-90810593D01*
X157534546Y-90776782D01*
X157534548Y-90776781D01*
X157534553Y-90776780D01*
X157787558Y-90680014D01*
X158023777Y-90547441D01*
X158238177Y-90381888D01*
X158426186Y-90186881D01*
X158583799Y-89966579D01*
X158657787Y-89822669D01*
X158707649Y-89725690D01*
X158707651Y-89725684D01*
X158707656Y-89725675D01*
X158795118Y-89469305D01*
X158844319Y-89202933D01*
X158854212Y-88932235D01*
X158824586Y-88662982D01*
X158756072Y-88400912D01*
X158650130Y-88151610D01*
X158509018Y-87920390D01*
X158419747Y-87813119D01*
X158335746Y-87712180D01*
X158335740Y-87712175D01*
X158134002Y-87531418D01*
X157908092Y-87381957D01*
X157908090Y-87381956D01*
X157662824Y-87266980D01*
X157662819Y-87266978D01*
X157662814Y-87266976D01*
X157403442Y-87188942D01*
X157403428Y-87188939D01*
X157287791Y-87171921D01*
X157135439Y-87149500D01*
X156932369Y-87149500D01*
X156932364Y-87149500D01*
X156729844Y-87164323D01*
X156729831Y-87164325D01*
X156465453Y-87223217D01*
X156465446Y-87223220D01*
X156212439Y-87319987D01*
X155976226Y-87452557D01*
X155761822Y-87618112D01*
X155573822Y-87813109D01*
X155573816Y-87813116D01*
X155416202Y-88033419D01*
X155416199Y-88033424D01*
X155292350Y-88274309D01*
X155292343Y-88274327D01*
X155204884Y-88530685D01*
X155204881Y-88530699D01*
X155155681Y-88797068D01*
X155155680Y-88797075D01*
X155145787Y-89067763D01*
X125849259Y-89067763D01*
X125854212Y-88932235D01*
X125824586Y-88662982D01*
X125756072Y-88400912D01*
X125650130Y-88151610D01*
X125509018Y-87920390D01*
X125419747Y-87813119D01*
X125335746Y-87712180D01*
X125335740Y-87712175D01*
X125134002Y-87531418D01*
X124908092Y-87381957D01*
X124908090Y-87381956D01*
X124662824Y-87266980D01*
X124662819Y-87266978D01*
X124662814Y-87266976D01*
X124403442Y-87188942D01*
X124403428Y-87188939D01*
X124287791Y-87171921D01*
X124135439Y-87149500D01*
X123932369Y-87149500D01*
X123932364Y-87149500D01*
X123729844Y-87164323D01*
X123729831Y-87164325D01*
X123465453Y-87223217D01*
X123465446Y-87223220D01*
X123212439Y-87319987D01*
X122976226Y-87452557D01*
X122761822Y-87618112D01*
X122573822Y-87813109D01*
X122573816Y-87813116D01*
X122416202Y-88033419D01*
X122416199Y-88033424D01*
X122292350Y-88274309D01*
X122292343Y-88274327D01*
X122204884Y-88530685D01*
X122204881Y-88530699D01*
X122155681Y-88797068D01*
X122155680Y-88797075D01*
X122145787Y-89067763D01*
X119500500Y-89067763D01*
X119500500Y-88999999D01*
X119517504Y-88610523D01*
X119517973Y-88605175D01*
X119568506Y-88221337D01*
X119569443Y-88216030D01*
X119609926Y-88033424D01*
X119653233Y-87838074D01*
X119654623Y-87832886D01*
X119771042Y-87463650D01*
X119772889Y-87458578D01*
X119921043Y-87100902D01*
X119923306Y-87096050D01*
X120102075Y-86752639D01*
X120104771Y-86747971D01*
X120312772Y-86421473D01*
X120315864Y-86417055D01*
X120551548Y-86109906D01*
X120555007Y-86105785D01*
X120816554Y-85820357D01*
X120820357Y-85816554D01*
X121105785Y-85555007D01*
X121109906Y-85551548D01*
X121417055Y-85315864D01*
X121421465Y-85312777D01*
X121747971Y-85104771D01*
X121752639Y-85102075D01*
X122096050Y-84923306D01*
X122100902Y-84921043D01*
X122458585Y-84772886D01*
X122463650Y-84771042D01*
X122832886Y-84654623D01*
X122838074Y-84653233D01*
X123216036Y-84569441D01*
X123221337Y-84568506D01*
X123605175Y-84517973D01*
X123610523Y-84517504D01*
X124000000Y-84500500D01*
X124065892Y-84500500D01*
X156934108Y-84500500D01*
X157000000Y-84500500D01*
X157389474Y-84517504D01*
G37*
%TD.AperFunction*%
%TA.AperFunction,Conductor*%
G36*
X150667677Y-109219685D02*
G01*
X150713432Y-109272489D01*
X150723376Y-109341647D01*
X150694351Y-109405203D01*
X150688319Y-109411681D01*
X149836319Y-110263681D01*
X149774996Y-110297166D01*
X149748638Y-110300000D01*
X148379544Y-110300000D01*
X148312505Y-110280315D01*
X148286315Y-110257758D01*
X148279512Y-110250000D01*
X146924000Y-110250000D01*
X146856961Y-110230315D01*
X146811206Y-110177511D01*
X146800000Y-110126000D01*
X146800000Y-109600000D01*
X147200000Y-109600000D01*
X147200000Y-109850000D01*
X148279510Y-109850000D01*
X148279511Y-109849998D01*
X148272058Y-109793377D01*
X148272055Y-109793368D01*
X148263392Y-109772453D01*
X148255923Y-109702983D01*
X148263392Y-109677546D01*
X148272056Y-109656629D01*
X148279512Y-109600000D01*
X147200000Y-109600000D01*
X146800000Y-109600000D01*
X146800000Y-109324000D01*
X146819685Y-109256961D01*
X146872489Y-109211206D01*
X146924000Y-109200000D01*
X150600638Y-109200000D01*
X150667677Y-109219685D01*
G37*
%TD.AperFunction*%
%TD*%
M02*
