M48
; DRILL file {KiCad 7.0.7} date Fri Feb  9 14:01:26 2024
; FORMAT={-:-/ absolute / inch / decimal}
; #@! TF.CreationDate,2024-02-09T14:01:26-05:00
; #@! TF.GenerationSoftware,Kicad,Pcbnew,7.0.7
; #@! TF.FileFunction,Plated,1,2,PTH
FMAT,2
INCH
; #@! TA.AperFunction,Plated,PTH,ViaDrill
T1C0.0157
; #@! TA.AperFunction,Plated,PTH,ComponentDrill
T2C0.0315
; #@! TA.AperFunction,Plated,PTH,ComponentDrill
T3C0.0394
; #@! TA.AperFunction,Plated,PTH,ComponentDrill
T4C0.0472
; #@! TA.AperFunction,Plated,PTH,ComponentDrill
T5C0.0598
%
G90
G05
T1
X5.315Y-4.2126
X5.3189Y-4.253
X5.3898Y-4.2598
X5.4267Y-4.3952
X5.4685Y-4.122
X5.7953Y-4.0
X5.8504Y-4.2677
X5.8504Y-4.3189
X5.874Y-4.4173
X5.8898Y-4.2677
X5.8898Y-4.3189
X5.9252Y-4.4173
X5.9291Y-4.2677
X5.9528Y-4.2165
X5.9921Y-4.2165
T2
X5.1362Y-5.0394
X5.2362Y-5.0394
X5.3362Y-5.0394
X5.648Y-5.0394
X5.748Y-5.0394
X5.848Y-5.0394
T3
X5.315Y-3.7795
X5.315Y-4.0945
X5.315Y-4.4094
X5.315Y-4.7638
T4
X4.8878Y-3.7795
X4.8878Y-3.9173
X4.8878Y-4.0551
X4.8878Y-4.1929
X4.8878Y-4.3307
X4.8878Y-4.4685
X4.8878Y-4.6063
X4.8878Y-4.7441
T5
X6.185Y-3.7756
X6.185Y-3.9756
X6.189Y-4.5283
X6.189Y-4.7283
T0
M30
