%TF.GenerationSoftware,KiCad,Pcbnew,7.0.7*%
%TF.CreationDate,2024-02-09T14:01:23-05:00*%
%TF.ProjectId,DRV8873H_single_breakout,44525638-3837-4334-985f-73696e676c65,rev?*%
%TF.SameCoordinates,Original*%
%TF.FileFunction,Paste,Top*%
%TF.FilePolarity,Positive*%
%FSLAX46Y46*%
G04 Gerber Fmt 4.6, Leading zero omitted, Abs format (unit mm)*
G04 Created by KiCad (PCBNEW 7.0.7) date 2024-02-09 14:01:23*
%MOMM*%
%LPD*%
G01*
G04 APERTURE LIST*
G04 Aperture macros list*
%AMRoundRect*
0 Rectangle with rounded corners*
0 $1 Rounding radius*
0 $2 $3 $4 $5 $6 $7 $8 $9 X,Y pos of 4 corners*
0 Add a 4 corners polygon primitive as box body*
4,1,4,$2,$3,$4,$5,$6,$7,$8,$9,$2,$3,0*
0 Add four circle primitives for the rounded corners*
1,1,$1+$1,$2,$3*
1,1,$1+$1,$4,$5*
1,1,$1+$1,$6,$7*
1,1,$1+$1,$8,$9*
0 Add four rect primitives between the rounded corners*
20,1,$1+$1,$2,$3,$4,$5,0*
20,1,$1+$1,$4,$5,$6,$7,0*
20,1,$1+$1,$6,$7,$8,$9,0*
20,1,$1+$1,$8,$9,$2,$3,0*%
G04 Aperture macros list end*
%ADD10RoundRect,0.237500X0.237500X-0.250000X0.237500X0.250000X-0.237500X0.250000X-0.237500X-0.250000X0*%
%ADD11RoundRect,0.237500X0.300000X0.237500X-0.300000X0.237500X-0.300000X-0.237500X0.300000X-0.237500X0*%
%ADD12RoundRect,0.237500X-0.250000X-0.237500X0.250000X-0.237500X0.250000X0.237500X-0.250000X0.237500X0*%
%ADD13RoundRect,0.250001X-0.714999X-0.949999X0.714999X-0.949999X0.714999X0.949999X-0.714999X0.949999X0*%
%ADD14RoundRect,0.100000X-0.687500X-0.100000X0.687500X-0.100000X0.687500X0.100000X-0.687500X0.100000X0*%
%ADD15RoundRect,0.237500X-0.300000X-0.237500X0.300000X-0.237500X0.300000X0.237500X-0.300000X0.237500X0*%
%ADD16RoundRect,0.237500X-0.237500X0.300000X-0.237500X-0.300000X0.237500X-0.300000X0.237500X0.300000X0*%
%ADD17RoundRect,0.250000X0.412500X1.100000X-0.412500X1.100000X-0.412500X-1.100000X0.412500X-1.100000X0*%
G04 APERTURE END LIST*
D10*
%TO.C,R1*%
X139000000Y-129000000D03*
X139000000Y-127175000D03*
%TD*%
D11*
%TO.C,C4*%
X147200000Y-103000000D03*
X145475000Y-103000000D03*
%TD*%
D10*
%TO.C,R2*%
X151000000Y-128912500D03*
X151000000Y-127087500D03*
%TD*%
D12*
%TO.C,R3*%
X135925000Y-93100000D03*
X134100000Y-93100000D03*
%TD*%
D13*
%TO.C,U1*%
X144137500Y-108425000D03*
D14*
X141275000Y-104850000D03*
X141275000Y-105500000D03*
X141275000Y-106150000D03*
X141275000Y-106800000D03*
X141275000Y-107450000D03*
X141275000Y-108100000D03*
X141275000Y-108750000D03*
X141275000Y-109400000D03*
X141275000Y-110050000D03*
X141275000Y-110700000D03*
X141275000Y-111350000D03*
X141275000Y-112000000D03*
X147000000Y-112000000D03*
X147000000Y-111350000D03*
X147000000Y-110700000D03*
X147000000Y-110050000D03*
X147000000Y-109400000D03*
X147000000Y-108750000D03*
X147000000Y-108100000D03*
X147000000Y-107450000D03*
X147000000Y-106800000D03*
X147000000Y-106150000D03*
X147000000Y-105500000D03*
X147000000Y-104850000D03*
%TD*%
D15*
%TO.C,C1*%
X141075000Y-103000000D03*
X142800000Y-103000000D03*
%TD*%
D16*
%TO.C,C2*%
X150000000Y-103937500D03*
X150000000Y-105662500D03*
%TD*%
%TO.C,C3*%
X152000000Y-103937500D03*
X152000000Y-105662500D03*
%TD*%
D17*
%TO.C,C5*%
X145662500Y-114600000D03*
X142537500Y-114600000D03*
%TD*%
D16*
%TO.C,C6*%
X147900000Y-113775000D03*
X147900000Y-115500000D03*
%TD*%
M02*
